G04 #@! TF.GenerationSoftware,KiCad,Pcbnew,5.0.0+dfsg1-2*
G04 #@! TF.CreationDate,2018-09-13T03:31:39+05:00*
G04 #@! TF.ProjectId,mainboard,6D61696E626F6172642E6B696361645F,rev?*
G04 #@! TF.SameCoordinates,Original*
G04 #@! TF.FileFunction,Soldermask,Top*
G04 #@! TF.FilePolarity,Negative*
%FSLAX46Y46*%
G04 Gerber Fmt 4.6, Leading zero omitted, Abs format (unit mm)*
G04 Created by KiCad (PCBNEW 5.0.0+dfsg1-2) date Thu Sep 13 03:31:39 2018*
%MOMM*%
%LPD*%
G01*
G04 APERTURE LIST*
%ADD10C,2.000000*%
%ADD11R,3.200000X2.000000*%
%ADD12R,2.000000X2.000000*%
%ADD13R,1.600000X1.600000*%
%ADD14O,1.600000X1.600000*%
%ADD15C,1.600000*%
%ADD16R,1.900000X1.900000*%
%ADD17C,1.900000*%
%ADD18C,3.400000*%
%ADD19R,1.400000X2.000000*%
%ADD20R,2.000000X1.700000*%
%ADD21R,1.450000X1.450000*%
%ADD22C,1.450000*%
%ADD23C,1.300000*%
%ADD24R,1.300000X1.300000*%
%ADD25C,1.500000*%
%ADD26R,1.500000X1.500000*%
%ADD27R,1.350000X2.150000*%
%ADD28R,3.600000X2.150000*%
%ADD29R,1.450000X3.200000*%
%ADD30R,10.900000X7.600000*%
%ADD31R,1.000000X2.375000*%
%ADD32R,1.925000X1.000000*%
%ADD33R,2.170000X1.070000*%
%ADD34R,1.070000X2.170000*%
%ADD35R,5.400000X5.400000*%
%ADD36R,1.000000X1.825000*%
%ADD37R,2.200000X1.000000*%
%ADD38R,2.000000X1.400000*%
%ADD39R,1.200000X1.300000*%
G04 APERTURE END LIST*
D10*
G04 #@! TO.C,BR1*
X357993000Y-202510000D03*
X357993000Y-197510000D03*
D11*
X364993000Y-205610000D03*
X364993000Y-194410000D03*
D10*
X372493000Y-202510000D03*
X372493000Y-200010000D03*
D12*
X372493000Y-197510000D03*
G04 #@! TD*
D13*
G04 #@! TO.C,VD1*
X434490000Y-183820000D03*
D14*
X426870000Y-183820000D03*
G04 #@! TD*
D13*
G04 #@! TO.C,X2*
X562920000Y-154000000D03*
D15*
X565460000Y-154000000D03*
X568000000Y-154000000D03*
X570540000Y-154000000D03*
X573080000Y-154000000D03*
G04 #@! TD*
D16*
G04 #@! TO.C,D1*
X493240000Y-191110000D03*
D17*
X490700000Y-191110000D03*
X493240000Y-193650000D03*
X490700000Y-193650000D03*
X493240000Y-196190000D03*
X490700000Y-196190000D03*
X493240000Y-198730000D03*
X490700000Y-198730000D03*
X493240000Y-201270000D03*
X490700000Y-201270000D03*
X493240000Y-203810000D03*
X490700000Y-203810000D03*
X493240000Y-206350000D03*
X490700000Y-206350000D03*
X493240000Y-208890000D03*
X490700000Y-208890000D03*
D18*
X588400000Y-185100000D03*
X588400000Y-214900000D03*
X491600000Y-185100000D03*
X491600000Y-214900000D03*
G04 #@! TD*
D19*
G04 #@! TO.C,R26*
X532035000Y-160000000D03*
X530335000Y-160000000D03*
G04 #@! TD*
D20*
G04 #@! TO.C,C1*
X407645000Y-162495000D03*
X407645000Y-160595000D03*
G04 #@! TD*
G04 #@! TO.C,C2*
X412725000Y-160595000D03*
X412725000Y-162495000D03*
G04 #@! TD*
G04 #@! TO.C,C3*
X394310000Y-160595000D03*
X394310000Y-162495000D03*
G04 #@! TD*
G04 #@! TO.C,C4*
X399390000Y-162500000D03*
X399390000Y-160600000D03*
G04 #@! TD*
D21*
G04 #@! TO.C,C5*
X405105000Y-202140000D03*
D22*
X405105000Y-204140000D03*
G04 #@! TD*
D23*
G04 #@! TO.C,C6*
X486000000Y-159500000D03*
D24*
X486000000Y-161000000D03*
G04 #@! TD*
D25*
G04 #@! TO.C,C7*
X469645000Y-166390000D03*
D26*
X469645000Y-168890000D03*
G04 #@! TD*
G04 #@! TO.C,C8*
X493000000Y-160000000D03*
D25*
X495500000Y-160000000D03*
G04 #@! TD*
D24*
G04 #@! TO.C,C9*
X479170000Y-168390000D03*
D23*
X479170000Y-166890000D03*
G04 #@! TD*
D20*
G04 #@! TO.C,C10*
X395580000Y-201870000D03*
X395580000Y-203770000D03*
G04 #@! TD*
G04 #@! TO.C,C11*
X391160000Y-201870000D03*
X391160000Y-203770000D03*
G04 #@! TD*
G04 #@! TO.C,C12*
X386690000Y-203770000D03*
X386690000Y-201870000D03*
G04 #@! TD*
G04 #@! TO.C,C13*
X384785000Y-187260000D03*
X384785000Y-185360000D03*
G04 #@! TD*
G04 #@! TO.C,C14*
X384785000Y-196785000D03*
X384785000Y-194885000D03*
G04 #@! TD*
D26*
G04 #@! TO.C,C15*
X546750000Y-162545000D03*
D25*
X549250000Y-162545000D03*
G04 #@! TD*
D20*
G04 #@! TO.C,C16*
X549715000Y-172385000D03*
X549715000Y-170485000D03*
G04 #@! TD*
G04 #@! TO.C,C17*
X400025000Y-201870000D03*
X400025000Y-203770000D03*
G04 #@! TD*
G04 #@! TO.C,C18*
X400025000Y-180280000D03*
X400025000Y-178380000D03*
G04 #@! TD*
G04 #@! TO.C,C19*
X395580000Y-178380000D03*
X395580000Y-180280000D03*
G04 #@! TD*
G04 #@! TO.C,C20*
X391135000Y-180280000D03*
X391135000Y-178380000D03*
G04 #@! TD*
G04 #@! TO.C,C21*
X386690000Y-178380000D03*
X386690000Y-180280000D03*
G04 #@! TD*
G04 #@! TO.C,C22*
X354000000Y-200950000D03*
X354000000Y-199050000D03*
G04 #@! TD*
G04 #@! TO.C,C23*
X540825000Y-169530000D03*
X540825000Y-171430000D03*
G04 #@! TD*
G04 #@! TO.C,C24*
X573000000Y-233100000D03*
X573000000Y-235000000D03*
G04 #@! TD*
G04 #@! TO.C,C25*
X513000000Y-235000000D03*
X513000000Y-233100000D03*
G04 #@! TD*
G04 #@! TO.C,C26*
X553130000Y-233100000D03*
X553130000Y-235000000D03*
G04 #@! TD*
G04 #@! TO.C,C27*
X452950000Y-198755000D03*
X452950000Y-200655000D03*
G04 #@! TD*
G04 #@! TO.C,C28*
X533175000Y-235215000D03*
X533175000Y-233315000D03*
G04 #@! TD*
G04 #@! TO.C,C29*
X492760000Y-233045000D03*
X492760000Y-234945000D03*
G04 #@! TD*
G04 #@! TO.C,C30*
X453000000Y-220950000D03*
X453000000Y-219050000D03*
G04 #@! TD*
G04 #@! TO.C,C31*
X453000000Y-239035000D03*
X453000000Y-240935000D03*
G04 #@! TD*
D27*
G04 #@! TO.C,DA1*
X493340000Y-165555000D03*
X491040000Y-165555000D03*
X488740000Y-165555000D03*
D28*
X491040000Y-171855000D03*
G04 #@! TD*
D29*
G04 #@! TO.C,DA2*
X479170000Y-174585000D03*
X474090000Y-174585000D03*
D30*
X476630000Y-184785000D03*
G04 #@! TD*
D31*
G04 #@! TO.C,DA3*
X405740000Y-186375000D03*
X404470000Y-186375000D03*
X403200000Y-186375000D03*
X401930000Y-186375000D03*
X400660000Y-186375000D03*
X399390000Y-186375000D03*
X398120000Y-186375000D03*
X396850000Y-186375000D03*
X395580000Y-186375000D03*
X394310000Y-186375000D03*
X393040000Y-186375000D03*
X391770000Y-186375000D03*
X390500000Y-186375000D03*
X389230000Y-186375000D03*
X405740000Y-195775000D03*
X404470000Y-195775000D03*
X403200000Y-195775000D03*
X401930000Y-195775000D03*
X400660000Y-195775000D03*
X399390000Y-195775000D03*
X398120000Y-195775000D03*
X396850000Y-195775000D03*
X395580000Y-195775000D03*
X394310000Y-195775000D03*
X393040000Y-195775000D03*
X391770000Y-195775000D03*
X390500000Y-195775000D03*
X389230000Y-195775000D03*
G04 #@! TD*
D32*
G04 #@! TO.C,DA4*
X425360000Y-214060000D03*
X425360000Y-215330000D03*
X425360000Y-216600000D03*
X425360000Y-217870000D03*
X430760000Y-214060000D03*
X430760000Y-215330000D03*
X430760000Y-216600000D03*
X430760000Y-217870000D03*
G04 #@! TD*
D33*
G04 #@! TO.C,DD1*
X555185000Y-171410000D03*
X555185000Y-172680000D03*
X555185000Y-173950000D03*
X555185000Y-175220000D03*
X555185000Y-176490000D03*
X555185000Y-177760000D03*
X555185000Y-179030000D03*
X555185000Y-180300000D03*
X555185000Y-181570000D03*
X555185000Y-182840000D03*
X555185000Y-184110000D03*
X555185000Y-185380000D03*
X555185000Y-186650000D03*
X555185000Y-187920000D03*
D34*
X557970000Y-189015000D03*
X559240000Y-189015000D03*
X560510000Y-189015000D03*
X561780000Y-189015000D03*
X563050000Y-189015000D03*
X564320000Y-189015000D03*
X565590000Y-189015000D03*
X566860000Y-189015000D03*
X568130000Y-189015000D03*
X569400000Y-189015000D03*
D33*
X572185000Y-187920000D03*
X572185000Y-186650000D03*
X572185000Y-185380000D03*
X572185000Y-184110000D03*
X572185000Y-182840000D03*
X572185000Y-181570000D03*
X572185000Y-180300000D03*
X572185000Y-179030000D03*
X572185000Y-177760000D03*
X572185000Y-176490000D03*
X572185000Y-175220000D03*
X572185000Y-173950000D03*
X572185000Y-172680000D03*
X572185000Y-171410000D03*
D35*
X562685000Y-178755000D03*
G04 #@! TD*
D36*
G04 #@! TO.C,DD2*
X541445000Y-201550000D03*
X540175000Y-201550000D03*
X538905000Y-201550000D03*
X537635000Y-201550000D03*
X536365000Y-201550000D03*
X535095000Y-201550000D03*
X533825000Y-201550000D03*
X532555000Y-201550000D03*
X541445000Y-210450000D03*
X540175000Y-210450000D03*
X538905000Y-210450000D03*
X537635000Y-210450000D03*
X536365000Y-210450000D03*
X535095000Y-210450000D03*
X533825000Y-210450000D03*
X532555000Y-210450000D03*
G04 #@! TD*
D37*
G04 #@! TO.C,K1*
X426680000Y-169215000D03*
X434680000Y-169215000D03*
X426680000Y-176835000D03*
X426680000Y-171755000D03*
X434680000Y-176835000D03*
X434680000Y-171755000D03*
X426680000Y-166675000D03*
X434680000Y-166675000D03*
G04 #@! TD*
D38*
G04 #@! TO.C,R1*
X548000000Y-218850000D03*
X548000000Y-217150000D03*
G04 #@! TD*
G04 #@! TO.C,R2*
X544000000Y-217150000D03*
X544000000Y-218850000D03*
G04 #@! TD*
D19*
G04 #@! TO.C,R3*
X578231000Y-164338000D03*
X579931000Y-164338000D03*
G04 #@! TD*
G04 #@! TO.C,R4*
X390945000Y-208280000D03*
X392645000Y-208280000D03*
G04 #@! TD*
G04 #@! TO.C,R5*
X379070000Y-187265000D03*
X380770000Y-187265000D03*
G04 #@! TD*
G04 #@! TO.C,R6*
X417765000Y-184455000D03*
X419465000Y-184455000D03*
G04 #@! TD*
D38*
G04 #@! TO.C,R7*
X425520000Y-209195000D03*
X425520000Y-207495000D03*
G04 #@! TD*
G04 #@! TO.C,R8*
X430600000Y-209195000D03*
X430600000Y-207495000D03*
G04 #@! TD*
D19*
G04 #@! TO.C,R9*
X437730000Y-225425000D03*
X436030000Y-225425000D03*
G04 #@! TD*
G04 #@! TO.C,R10*
X436000000Y-221000000D03*
X437700000Y-221000000D03*
G04 #@! TD*
D38*
G04 #@! TO.C,R11*
X395580000Y-173930000D03*
X395580000Y-172230000D03*
G04 #@! TD*
G04 #@! TO.C,R12*
X391135000Y-172230000D03*
X391135000Y-173930000D03*
G04 #@! TD*
G04 #@! TO.C,R13*
X419805000Y-215330000D03*
X419805000Y-213630000D03*
G04 #@! TD*
G04 #@! TO.C,R14*
X436950000Y-216600000D03*
X436950000Y-214900000D03*
G04 #@! TD*
G04 #@! TO.C,R15*
X541000000Y-193150000D03*
X541000000Y-194850000D03*
G04 #@! TD*
G04 #@! TO.C,R16*
X537000000Y-194850000D03*
X537000000Y-193150000D03*
G04 #@! TD*
G04 #@! TO.C,R17*
X533000000Y-193150000D03*
X533000000Y-194850000D03*
G04 #@! TD*
G04 #@! TO.C,R18*
X529000000Y-193300000D03*
X529000000Y-195000000D03*
G04 #@! TD*
G04 #@! TO.C,R19*
X527812000Y-218850000D03*
X527812000Y-217150000D03*
G04 #@! TD*
G04 #@! TO.C,R20*
X532000000Y-217150000D03*
X532000000Y-218850000D03*
G04 #@! TD*
G04 #@! TO.C,R21*
X536000000Y-218850000D03*
X536000000Y-217150000D03*
G04 #@! TD*
G04 #@! TO.C,R22*
X540000000Y-217150000D03*
X540000000Y-218850000D03*
G04 #@! TD*
G04 #@! TO.C,R23*
X544635000Y-168045000D03*
X544635000Y-169745000D03*
G04 #@! TD*
D19*
G04 #@! TO.C,R24*
X583165000Y-187945000D03*
X581465000Y-187945000D03*
G04 #@! TD*
D38*
G04 #@! TO.C,R25*
X522000000Y-165165000D03*
X522000000Y-163465000D03*
G04 #@! TD*
D17*
G04 #@! TO.C,SB1*
X583250000Y-231750000D03*
X576750000Y-231750000D03*
X583250000Y-236250000D03*
X576750000Y-236250000D03*
G04 #@! TD*
G04 #@! TO.C,SB2*
X516750000Y-236250000D03*
X523250000Y-236250000D03*
X516750000Y-231750000D03*
X523250000Y-231750000D03*
G04 #@! TD*
G04 #@! TO.C,SB3*
X563250000Y-231750000D03*
X556750000Y-231750000D03*
X563250000Y-236250000D03*
X556750000Y-236250000D03*
G04 #@! TD*
G04 #@! TO.C,SB4*
X463185000Y-197775000D03*
X456685000Y-197775000D03*
X463185000Y-202275000D03*
X456685000Y-202275000D03*
G04 #@! TD*
G04 #@! TO.C,SB5*
X536750000Y-236250000D03*
X543250000Y-236250000D03*
X536750000Y-231750000D03*
X543250000Y-231750000D03*
G04 #@! TD*
G04 #@! TO.C,SB6*
X496750000Y-236250000D03*
X503250000Y-236250000D03*
X496750000Y-231750000D03*
X503250000Y-231750000D03*
G04 #@! TD*
G04 #@! TO.C,SB7*
X463250000Y-217750000D03*
X456750000Y-217750000D03*
X463250000Y-222250000D03*
X456750000Y-222250000D03*
G04 #@! TD*
G04 #@! TO.C,SB8*
X463250000Y-237750000D03*
X456750000Y-237750000D03*
X463250000Y-242250000D03*
X456750000Y-242250000D03*
G04 #@! TD*
D39*
G04 #@! TO.C,VT1*
X419570000Y-179135000D03*
X421470000Y-179135000D03*
X420520000Y-176835000D03*
G04 #@! TD*
G04 #@! TO.C,VT2*
X535950000Y-163850000D03*
X534050000Y-163850000D03*
X535000000Y-166150000D03*
G04 #@! TD*
G04 #@! TO.C,VT3*
X527375000Y-166100000D03*
X526425000Y-163800000D03*
X528325000Y-163800000D03*
G04 #@! TD*
D13*
G04 #@! TO.C,X1*
X464565000Y-154305000D03*
D15*
X467105000Y-154305000D03*
X469645000Y-154305000D03*
X472185000Y-154305000D03*
X474725000Y-154305000D03*
X477265000Y-154305000D03*
G04 #@! TD*
D13*
G04 #@! TO.C,X3*
X407645000Y-154880000D03*
D15*
X410185000Y-154880000D03*
X412725000Y-154880000D03*
G04 #@! TD*
D13*
G04 #@! TO.C,X4*
X394310000Y-154880000D03*
D15*
X396850000Y-154880000D03*
X399390000Y-154880000D03*
G04 #@! TD*
D13*
G04 #@! TO.C,X5*
X419885000Y-155000000D03*
D15*
X422425000Y-155000000D03*
X424965000Y-155000000D03*
G04 #@! TD*
G04 #@! TO.C,X6*
X438540000Y-155000000D03*
X436000000Y-155000000D03*
D13*
X433460000Y-155000000D03*
G04 #@! TD*
G04 #@! TO.C,X7*
X527185000Y-154000000D03*
D15*
X529725000Y-154000000D03*
X532265000Y-154000000D03*
X534805000Y-154000000D03*
X537345000Y-154000000D03*
G04 #@! TD*
M02*
