M48
;DRILL file {KiCad 5.0.0+dfsg1-2} date Thu Sep 13 03:31:37 2018
;FORMAT={-:-/ absolute / inch / decimal}
FMAT,2
INCH,TZ
T1C0.0157
T2C0.0256
T3C0.0276
T4C0.0315
T5C0.0394
T6C0.0591
T7C0.1378
%
G90
G05
M72
T1
X14.925Y-7.275
X15.Y-7.625
X15.4Y-6.7
X15.525Y-8.2
X15.575Y-6.7
X15.575Y-7.575
X15.575Y-8.1
X15.725Y-6.48
X15.725Y-7.45
X15.75Y-8.1
X15.77Y-7.61
X15.825Y-7.61
X15.8864Y-7.4521
X15.925Y-7.2
X15.925Y-7.85
X15.975Y-7.61
X16.415Y-7.145
X16.595Y-7.145
X16.6Y-7.4
X16.75Y-7.675
X16.835Y-8.58
X16.885Y-8.34
X16.925Y-6.8
X16.95Y-7.65
X17.0211Y-6.6954
X17.037Y-8.3919
X17.6Y-7.35
X18.0872Y-8.3782
X18.3612Y-7.0149
X18.5305Y-7.3247
X18.5827Y-6.2598
X18.5827Y-6.4173
X19.1533Y-7.3121
X19.5276Y-6.4567
X19.54Y-7.825
X19.78Y-8.525
X20.84Y-8.46
X20.86Y-8.56
X20.975Y-7.825
X21.08Y-8.125
X21.12Y-6.965
X21.12Y-8.04
X21.1614Y-8.2087
X21.2Y-8.38
X21.21Y-8.12
X21.2301Y-8.0862
X21.25Y-7.825
X21.3Y-7.25
X21.4Y-6.75
X21.4Y-8.04
X21.425Y-7.6417
X21.425Y-7.95
X21.475Y-8.325
X21.525Y-6.4835
X21.55Y-7.825
X21.5775Y-6.7052
X21.611Y-7.5027
X21.6142Y-7.7559
X21.8504Y-7.7559
X21.9216Y-6.8887
X21.922Y-7.465
X21.9266Y-6.7655
X21.975Y-7.29
X22.097Y-7.1819
X22.279Y-7.0361
X22.2918Y-7.0819
X22.2979Y-6.853
X22.409Y-6.7934
X22.4542Y-6.9911
X22.4599Y-6.7545
T2
X19.1339Y-6.2795
X19.1339Y-6.3386
X15.949Y-7.9583
X15.949Y-8.037
X18.865Y-6.5705
X18.865Y-6.6295
T3
X21.5256Y-6.3994
X21.624Y-6.3994
X18.49Y-6.5508
X18.49Y-6.6492
X19.4094Y-6.2992
X19.5079Y-6.2992
T4
X16.8059Y-7.237
X17.1059Y-7.237
X15.524Y-6.0976
X15.624Y-6.0976
X15.724Y-6.0976
X20.7553Y-6.063
X20.8553Y-6.063
X20.9553Y-6.063
X21.0553Y-6.063
X21.1553Y-6.063
X17.0654Y-6.1024
X17.1654Y-6.1024
X17.2654Y-6.1024
X16.049Y-6.0976
X16.149Y-6.0976
X16.249Y-6.0976
X22.1622Y-6.063
X22.2622Y-6.063
X22.3622Y-6.063
X22.4622Y-6.063
X22.5622Y-6.063
X16.5309Y-6.1024
X16.6309Y-6.1024
X16.7309Y-6.1024
X18.29Y-6.075
X18.39Y-6.075
X18.49Y-6.075
X18.59Y-6.075
X18.69Y-6.075
X18.79Y-6.075
T5
X22.7067Y-9.124
X22.7067Y-9.3012
X22.9626Y-9.124
X22.9626Y-9.3012
X19.3189Y-7.524
X19.3189Y-7.624
X19.3189Y-7.724
X19.3189Y-7.824
X19.3189Y-7.924
X19.3189Y-8.024
X19.3189Y-8.124
X19.3189Y-8.224
X19.4189Y-7.524
X19.4189Y-7.624
X19.4189Y-7.724
X19.4189Y-7.824
X19.4189Y-7.924
X19.4189Y-8.024
X19.4189Y-8.124
X19.4189Y-8.224
X17.9823Y-9.3602
X17.9823Y-9.5374
X18.2382Y-9.3602
X18.2382Y-9.5374
X17.9823Y-8.5728
X17.9823Y-8.75
X18.2382Y-8.5728
X18.2382Y-8.75
X20.3445Y-9.124
X20.3445Y-9.3012
X20.6004Y-9.124
X20.6004Y-9.3012
X21.1319Y-9.124
X21.1319Y-9.3012
X21.3878Y-9.124
X21.3878Y-9.3012
X19.5571Y-9.124
X19.5571Y-9.3012
X19.813Y-9.124
X19.813Y-9.3012
X14.0942Y-7.776
X14.0942Y-7.9728
X14.6651Y-7.776
X14.6651Y-7.8744
X14.6651Y-7.9728
X21.9193Y-9.124
X21.9193Y-9.3012
X22.1752Y-9.124
X22.1752Y-9.3012
X17.9797Y-7.7864
X17.9797Y-7.9636
X18.2356Y-7.7864
X18.2356Y-7.9636
T7
X13.9764Y-6.1024
X13.9764Y-9.6457
X14.3701Y-7.2835
X14.3701Y-8.4646
X18.7008Y-8.4646
X18.7008Y-9.6457
X23.4252Y-6.1024
X23.4252Y-9.6457
T6
X14.3954Y-7.6539G85X14.3442Y-7.6539
G05
X14.3954Y-8.0949G85X14.3442Y-8.0949
G05
T0
M30
