G04 #@! TF.GenerationSoftware,KiCad,Pcbnew,5.0.0+dfsg1-2*
G04 #@! TF.CreationDate,2018-09-13T03:31:39+05:00*
G04 #@! TF.ProjectId,mainboard,6D61696E626F6172642E6B696361645F,rev?*
G04 #@! TF.SameCoordinates,Original*
G04 #@! TF.FileFunction,Copper,L1,Top,Signal*
G04 #@! TF.FilePolarity,Positive*
%FSLAX46Y46*%
G04 Gerber Fmt 4.6, Leading zero omitted, Abs format (unit mm)*
G04 Created by KiCad (PCBNEW 5.0.0+dfsg1-2) date Thu Sep 13 03:31:39 2018*
%MOMM*%
%LPD*%
G01*
G04 APERTURE LIST*
G04 #@! TA.AperFunction,ComponentPad*
%ADD10C,2.000000*%
G04 #@! TD*
G04 #@! TA.AperFunction,ComponentPad*
%ADD11R,3.200000X2.000000*%
G04 #@! TD*
G04 #@! TA.AperFunction,ComponentPad*
%ADD12R,2.000000X2.000000*%
G04 #@! TD*
G04 #@! TA.AperFunction,ComponentPad*
%ADD13R,1.600000X1.600000*%
G04 #@! TD*
G04 #@! TA.AperFunction,ComponentPad*
%ADD14O,1.600000X1.600000*%
G04 #@! TD*
G04 #@! TA.AperFunction,ComponentPad*
%ADD15R,1.200000X1.200000*%
G04 #@! TD*
G04 #@! TA.AperFunction,ComponentPad*
%ADD16C,1.200000*%
G04 #@! TD*
G04 #@! TA.AperFunction,ComponentPad*
%ADD17R,1.500000X1.500000*%
G04 #@! TD*
G04 #@! TA.AperFunction,ComponentPad*
%ADD18C,1.500000*%
G04 #@! TD*
G04 #@! TA.AperFunction,SMDPad,CuDef*
%ADD19R,1.000000X1.600000*%
G04 #@! TD*
G04 #@! TA.AperFunction,SMDPad,CuDef*
%ADD20R,1.850000X1.550000*%
G04 #@! TD*
G04 #@! TA.AperFunction,ComponentPad*
%ADD21R,1.050000X1.050000*%
G04 #@! TD*
G04 #@! TA.AperFunction,ComponentPad*
%ADD22C,1.050000*%
G04 #@! TD*
G04 #@! TA.AperFunction,ComponentPad*
%ADD23C,1.100000*%
G04 #@! TD*
G04 #@! TA.AperFunction,ComponentPad*
%ADD24R,1.100000X1.100000*%
G04 #@! TD*
G04 #@! TA.AperFunction,SMDPad,CuDef*
%ADD25R,0.950000X1.750000*%
G04 #@! TD*
G04 #@! TA.AperFunction,SMDPad,CuDef*
%ADD26R,3.200000X1.750000*%
G04 #@! TD*
G04 #@! TA.AperFunction,SMDPad,CuDef*
%ADD27R,1.050000X2.800000*%
G04 #@! TD*
G04 #@! TA.AperFunction,SMDPad,CuDef*
%ADD28R,10.500000X7.200000*%
G04 #@! TD*
G04 #@! TA.AperFunction,SMDPad,CuDef*
%ADD29R,0.600000X1.975000*%
G04 #@! TD*
G04 #@! TA.AperFunction,SMDPad,CuDef*
%ADD30R,1.525000X0.600000*%
G04 #@! TD*
G04 #@! TA.AperFunction,SMDPad,CuDef*
%ADD31R,2.000000X0.900000*%
G04 #@! TD*
G04 #@! TA.AperFunction,SMDPad,CuDef*
%ADD32R,0.900000X2.000000*%
G04 #@! TD*
G04 #@! TA.AperFunction,SMDPad,CuDef*
%ADD33R,5.000000X5.000000*%
G04 #@! TD*
G04 #@! TA.AperFunction,SMDPad,CuDef*
%ADD34R,0.600000X1.425000*%
G04 #@! TD*
G04 #@! TA.AperFunction,SMDPad,CuDef*
%ADD35R,2.200000X1.000000*%
G04 #@! TD*
G04 #@! TA.AperFunction,SMDPad,CuDef*
%ADD36R,1.600000X1.000000*%
G04 #@! TD*
G04 #@! TA.AperFunction,SMDPad,CuDef*
%ADD37R,0.800000X0.900000*%
G04 #@! TD*
G04 #@! TA.AperFunction,ViaPad*
%ADD38C,4.000000*%
G04 #@! TD*
G04 #@! TA.AperFunction,ViaPad*
%ADD39C,0.800000*%
G04 #@! TD*
G04 #@! TA.AperFunction,Conductor*
%ADD40C,0.300000*%
G04 #@! TD*
G04 #@! TA.AperFunction,Conductor*
%ADD41C,0.500000*%
G04 #@! TD*
G04 #@! TA.AperFunction,Conductor*
%ADD42C,0.400000*%
G04 #@! TD*
G04 APERTURE END LIST*
D10*
G04 #@! TO.P,BR1,S1*
G04 #@! TO.N,/RE_BTN*
X357993000Y-202510000D03*
G04 #@! TO.P,BR1,S2*
G04 #@! TO.N,GND*
X357993000Y-197510000D03*
D11*
G04 #@! TO.P,BR1,MP*
G04 #@! TO.N,N/C*
X364993000Y-205610000D03*
X364993000Y-194410000D03*
D10*
G04 #@! TO.P,BR1,B*
G04 #@! TO.N,/RE_B*
X372493000Y-202510000D03*
G04 #@! TO.P,BR1,C*
G04 #@! TO.N,GND*
X372493000Y-200010000D03*
D12*
G04 #@! TO.P,BR1,A*
G04 #@! TO.N,/RE_A*
X372493000Y-197510000D03*
G04 #@! TD*
D13*
G04 #@! TO.P,VD1,1*
G04 #@! TO.N,+5V*
X434490000Y-183820000D03*
D14*
G04 #@! TO.P,VD1,2*
G04 #@! TO.N,Net-(K1-Pad10)*
X426870000Y-183820000D03*
G04 #@! TD*
D15*
G04 #@! TO.P,X2,1*
G04 #@! TO.N,/SCL*
X562920000Y-154000000D03*
D16*
G04 #@! TO.P,X2,2*
G04 #@! TO.N,/SDA*
X565460000Y-154000000D03*
G04 #@! TO.P,X2,3*
G04 #@! TO.N,/ONEWIRE*
X568000000Y-154000000D03*
G04 #@! TO.P,X2,4*
G04 #@! TO.N,+5V*
X570540000Y-154000000D03*
G04 #@! TO.P,X2,5*
G04 #@! TO.N,GND*
X573080000Y-154000000D03*
G04 #@! TD*
D17*
G04 #@! TO.P,D1,1*
G04 #@! TO.N,+5V*
X493240000Y-191110000D03*
D18*
G04 #@! TO.P,D1,2*
G04 #@! TO.N,GND*
X490700000Y-191110000D03*
G04 #@! TO.P,D1,3*
X493240000Y-193650000D03*
G04 #@! TO.P,D1,4*
G04 #@! TO.N,/RES*
X490700000Y-193650000D03*
G04 #@! TO.P,D1,5*
G04 #@! TO.N,/CS0*
X493240000Y-196190000D03*
G04 #@! TO.P,D1,6*
G04 #@! TO.N,/DC*
X490700000Y-196190000D03*
G04 #@! TO.P,D1,7*
G04 #@! TO.N,GND*
X493240000Y-198730000D03*
G04 #@! TO.P,D1,8*
X490700000Y-198730000D03*
G04 #@! TO.P,D1,9*
G04 #@! TO.N,/SCLK*
X493240000Y-201270000D03*
G04 #@! TO.P,D1,10*
G04 #@! TO.N,/MOSI*
X490700000Y-201270000D03*
G04 #@! TO.P,D1,11*
G04 #@! TO.N,Net-(D1-Pad11)*
X493240000Y-203810000D03*
G04 #@! TO.P,D1,12*
G04 #@! TO.N,GND*
X490700000Y-203810000D03*
G04 #@! TO.P,D1,13*
X493240000Y-206350000D03*
G04 #@! TO.P,D1,14*
X490700000Y-206350000D03*
G04 #@! TO.P,D1,15*
X493240000Y-208890000D03*
G04 #@! TO.P,D1,16*
X490700000Y-208890000D03*
G04 #@! TD*
D19*
G04 #@! TO.P,R26,1*
G04 #@! TO.N,Net-(R26-Pad1)*
X532035000Y-160000000D03*
G04 #@! TO.P,R26,2*
G04 #@! TO.N,Net-(R26-Pad2)*
X530335000Y-160000000D03*
G04 #@! TD*
D20*
G04 #@! TO.P,C1,2*
G04 #@! TO.N,Net-(C1-Pad2)*
X407645000Y-162495000D03*
G04 #@! TO.P,C1,1*
G04 #@! TO.N,Net-(C1-Pad1)*
X407645000Y-160595000D03*
G04 #@! TD*
G04 #@! TO.P,C2,1*
G04 #@! TO.N,Net-(C2-Pad1)*
X412725000Y-160595000D03*
G04 #@! TO.P,C2,2*
G04 #@! TO.N,Net-(C2-Pad2)*
X412725000Y-162495000D03*
G04 #@! TD*
G04 #@! TO.P,C3,1*
G04 #@! TO.N,Net-(C3-Pad1)*
X394310000Y-160595000D03*
G04 #@! TO.P,C3,2*
G04 #@! TO.N,Net-(C3-Pad2)*
X394310000Y-162495000D03*
G04 #@! TD*
G04 #@! TO.P,C4,2*
G04 #@! TO.N,Net-(C4-Pad2)*
X399390000Y-162500000D03*
G04 #@! TO.P,C4,1*
G04 #@! TO.N,Net-(C4-Pad1)*
X399390000Y-160600000D03*
G04 #@! TD*
D21*
G04 #@! TO.P,C5,1*
G04 #@! TO.N,Net-(C5-Pad1)*
X405105000Y-202140000D03*
D22*
G04 #@! TO.P,C5,2*
G04 #@! TO.N,AGND*
X405105000Y-204140000D03*
G04 #@! TD*
G04 #@! TO.P,C6,2*
G04 #@! TO.N,GND*
X486000000Y-159500000D03*
D21*
G04 #@! TO.P,C6,1*
G04 #@! TO.N,+5V*
X486000000Y-161000000D03*
G04 #@! TD*
D23*
G04 #@! TO.P,C7,2*
G04 #@! TO.N,GND*
X469645000Y-166390000D03*
D24*
G04 #@! TO.P,C7,1*
G04 #@! TO.N,+12V*
X469645000Y-168890000D03*
G04 #@! TD*
G04 #@! TO.P,C8,1*
G04 #@! TO.N,+3V3*
X493000000Y-160000000D03*
D23*
G04 #@! TO.P,C8,2*
G04 #@! TO.N,GND*
X495500000Y-160000000D03*
G04 #@! TD*
D21*
G04 #@! TO.P,C9,1*
G04 #@! TO.N,+9V*
X479170000Y-168390000D03*
D22*
G04 #@! TO.P,C9,2*
G04 #@! TO.N,GND*
X479170000Y-166890000D03*
G04 #@! TD*
D20*
G04 #@! TO.P,C10,2*
G04 #@! TO.N,/TREB_L*
X395580000Y-201870000D03*
G04 #@! TO.P,C10,1*
G04 #@! TO.N,AGND*
X395580000Y-203770000D03*
G04 #@! TD*
G04 #@! TO.P,C11,2*
G04 #@! TO.N,/MIN_L*
X391160000Y-201870000D03*
G04 #@! TO.P,C11,1*
G04 #@! TO.N,Net-(C11-Pad1)*
X391160000Y-203770000D03*
G04 #@! TD*
G04 #@! TO.P,C12,1*
G04 #@! TO.N,Net-(C11-Pad1)*
X386690000Y-203770000D03*
G04 #@! TO.P,C12,2*
G04 #@! TO.N,/MOUT_L*
X386690000Y-201870000D03*
G04 #@! TD*
G04 #@! TO.P,C13,1*
G04 #@! TO.N,Net-(C13-Pad1)*
X384785000Y-187260000D03*
G04 #@! TO.P,C13,2*
G04 #@! TO.N,/BIN_L*
X384785000Y-185360000D03*
G04 #@! TD*
G04 #@! TO.P,C14,2*
G04 #@! TO.N,/BOUT_L*
X384785000Y-196785000D03*
G04 #@! TO.P,C14,1*
G04 #@! TO.N,Net-(C13-Pad1)*
X384785000Y-194885000D03*
G04 #@! TD*
D24*
G04 #@! TO.P,C15,1*
G04 #@! TO.N,+3V3*
X546750000Y-162545000D03*
D23*
G04 #@! TO.P,C15,2*
G04 #@! TO.N,GND*
X549250000Y-162545000D03*
G04 #@! TD*
D20*
G04 #@! TO.P,C16,1*
G04 #@! TO.N,+3V3*
X549715000Y-172385000D03*
G04 #@! TO.P,C16,2*
G04 #@! TO.N,GND*
X549715000Y-170485000D03*
G04 #@! TD*
G04 #@! TO.P,C17,2*
G04 #@! TO.N,/TREB_R*
X400025000Y-201870000D03*
G04 #@! TO.P,C17,1*
G04 #@! TO.N,AGND*
X400025000Y-203770000D03*
G04 #@! TD*
G04 #@! TO.P,C18,2*
G04 #@! TO.N,/MIN_R*
X400025000Y-180280000D03*
G04 #@! TO.P,C18,1*
G04 #@! TO.N,Net-(C18-Pad1)*
X400025000Y-178380000D03*
G04 #@! TD*
G04 #@! TO.P,C19,1*
G04 #@! TO.N,Net-(C18-Pad1)*
X395580000Y-178380000D03*
G04 #@! TO.P,C19,2*
G04 #@! TO.N,/MOUT_R*
X395580000Y-180280000D03*
G04 #@! TD*
G04 #@! TO.P,C20,2*
G04 #@! TO.N,/BIN_R*
X391135000Y-180280000D03*
G04 #@! TO.P,C20,1*
G04 #@! TO.N,Net-(C20-Pad1)*
X391135000Y-178380000D03*
G04 #@! TD*
G04 #@! TO.P,C21,1*
G04 #@! TO.N,Net-(C20-Pad1)*
X386690000Y-178380000D03*
G04 #@! TO.P,C21,2*
G04 #@! TO.N,/BOUT_R*
X386690000Y-180280000D03*
G04 #@! TD*
G04 #@! TO.P,C22,1*
G04 #@! TO.N,/RE_BTN*
X354000000Y-200950000D03*
G04 #@! TO.P,C22,2*
G04 #@! TO.N,GND*
X354000000Y-199050000D03*
G04 #@! TD*
G04 #@! TO.P,C23,1*
G04 #@! TO.N,/EN*
X540825000Y-169530000D03*
G04 #@! TO.P,C23,2*
G04 #@! TO.N,GND*
X540825000Y-171430000D03*
G04 #@! TD*
G04 #@! TO.P,C24,1*
G04 #@! TO.N,/B_DISPLAY*
X573000000Y-233100000D03*
G04 #@! TO.P,C24,2*
G04 #@! TO.N,GND*
X573000000Y-235000000D03*
G04 #@! TD*
G04 #@! TO.P,C25,2*
G04 #@! TO.N,GND*
X513000000Y-235000000D03*
G04 #@! TO.P,C25,1*
G04 #@! TO.N,/B_MUTE*
X513000000Y-233100000D03*
G04 #@! TD*
G04 #@! TO.P,C26,1*
G04 #@! TO.N,/B_INPUT*
X553130000Y-233100000D03*
G04 #@! TO.P,C26,2*
G04 #@! TO.N,GND*
X553130000Y-235000000D03*
G04 #@! TD*
G04 #@! TO.P,C27,2*
G04 #@! TO.N,GND*
X452950000Y-198755000D03*
G04 #@! TO.P,C27,1*
G04 #@! TO.N,/B_PHONES*
X452950000Y-200655000D03*
G04 #@! TD*
G04 #@! TO.P,C28,2*
G04 #@! TO.N,GND*
X533175000Y-235215000D03*
G04 #@! TO.P,C28,1*
G04 #@! TO.N,/B_DEFEAT*
X533175000Y-233315000D03*
G04 #@! TD*
G04 #@! TO.P,C29,1*
G04 #@! TO.N,/B_SETTINGS*
X492760000Y-233045000D03*
G04 #@! TO.P,C29,2*
G04 #@! TO.N,GND*
X492760000Y-234945000D03*
G04 #@! TD*
G04 #@! TO.P,C30,2*
G04 #@! TO.N,GND*
X453000000Y-220950000D03*
G04 #@! TO.P,C30,1*
G04 #@! TO.N,/B_PLUS*
X453000000Y-219050000D03*
G04 #@! TD*
G04 #@! TO.P,C31,1*
G04 #@! TO.N,/B_MINUS*
X453000000Y-239035000D03*
G04 #@! TO.P,C31,2*
G04 #@! TO.N,GND*
X453000000Y-240935000D03*
G04 #@! TD*
D25*
G04 #@! TO.P,DA1,1*
G04 #@! TO.N,GND*
X493340000Y-165555000D03*
G04 #@! TO.P,DA1,2*
G04 #@! TO.N,+3V3*
X491040000Y-165555000D03*
G04 #@! TO.P,DA1,3*
G04 #@! TO.N,+5V*
X488740000Y-165555000D03*
D26*
G04 #@! TO.P,DA1,4*
G04 #@! TO.N,+3V3*
X491040000Y-171855000D03*
G04 #@! TD*
D27*
G04 #@! TO.P,DA2,1*
G04 #@! TO.N,+9V*
X479170000Y-174585000D03*
G04 #@! TO.P,DA2,2*
G04 #@! TO.N,+12V*
X474090000Y-174585000D03*
D28*
G04 #@! TO.P,DA2,3*
G04 #@! TO.N,GND*
X476630000Y-184785000D03*
G04 #@! TD*
D29*
G04 #@! TO.P,DA3,1*
G04 #@! TO.N,AGND*
X405740000Y-186375000D03*
G04 #@! TO.P,DA3,2*
X404470000Y-186375000D03*
G04 #@! TO.P,DA3,3*
G04 #@! TO.N,Net-(C2-Pad2)*
X403200000Y-186375000D03*
G04 #@! TO.P,DA3,4*
G04 #@! TO.N,Net-(C1-Pad2)*
X401930000Y-186375000D03*
G04 #@! TO.P,DA3,5*
G04 #@! TO.N,AGND*
X400660000Y-186375000D03*
G04 #@! TO.P,DA3,6*
X399390000Y-186375000D03*
G04 #@! TO.P,DA3,7*
G04 #@! TO.N,Net-(C3-Pad2)*
X398120000Y-186375000D03*
G04 #@! TO.P,DA3,8*
G04 #@! TO.N,Net-(DA3-Pad8)*
X396850000Y-186375000D03*
G04 #@! TO.P,DA3,9*
G04 #@! TO.N,Net-(DA3-Pad9)*
X395580000Y-186375000D03*
G04 #@! TO.P,DA3,10*
G04 #@! TO.N,/MIN_R*
X394310000Y-186375000D03*
G04 #@! TO.P,DA3,11*
G04 #@! TO.N,/MOUT_R*
X393040000Y-186375000D03*
G04 #@! TO.P,DA3,12*
G04 #@! TO.N,/BIN_R*
X391770000Y-186375000D03*
G04 #@! TO.P,DA3,13*
G04 #@! TO.N,/BOUT_R*
X390500000Y-186375000D03*
G04 #@! TO.P,DA3,14*
G04 #@! TO.N,/BIN_L*
X389230000Y-186375000D03*
G04 #@! TO.P,DA3,28*
G04 #@! TO.N,Net-(C4-Pad2)*
X405740000Y-195775000D03*
G04 #@! TO.P,DA3,27*
G04 #@! TO.N,/LOUT*
X404470000Y-195775000D03*
G04 #@! TO.P,DA3,26*
G04 #@! TO.N,/ROUT*
X403200000Y-195775000D03*
G04 #@! TO.P,DA3,25*
G04 #@! TO.N,AGND*
X401930000Y-195775000D03*
G04 #@! TO.P,DA3,24*
G04 #@! TO.N,+9V*
X400660000Y-195775000D03*
G04 #@! TO.P,DA3,23*
G04 #@! TO.N,Net-(C5-Pad1)*
X399390000Y-195775000D03*
G04 #@! TO.P,DA3,22*
G04 #@! TO.N,/SDA*
X398120000Y-195775000D03*
G04 #@! TO.P,DA3,21*
G04 #@! TO.N,/SCL*
X396850000Y-195775000D03*
G04 #@! TO.P,DA3,20*
G04 #@! TO.N,GND*
X395580000Y-195775000D03*
G04 #@! TO.P,DA3,19*
G04 #@! TO.N,/TREB_R*
X394310000Y-195775000D03*
G04 #@! TO.P,DA3,18*
G04 #@! TO.N,/TREB_L*
X393040000Y-195775000D03*
G04 #@! TO.P,DA3,17*
G04 #@! TO.N,/MIN_L*
X391770000Y-195775000D03*
G04 #@! TO.P,DA3,16*
G04 #@! TO.N,/MOUT_L*
X390500000Y-195775000D03*
G04 #@! TO.P,DA3,15*
G04 #@! TO.N,/BOUT_L*
X389230000Y-195775000D03*
G04 #@! TD*
D30*
G04 #@! TO.P,DA4,1*
G04 #@! TO.N,/ADC6*
X425360000Y-214060000D03*
G04 #@! TO.P,DA4,2*
G04 #@! TO.N,Net-(DA4-Pad2)*
X425360000Y-215330000D03*
G04 #@! TO.P,DA4,3*
G04 #@! TO.N,Net-(DA4-Pad3)*
X425360000Y-216600000D03*
G04 #@! TO.P,DA4,4*
G04 #@! TO.N,-12V*
X425360000Y-217870000D03*
G04 #@! TO.P,DA4,8*
G04 #@! TO.N,+12V*
X430760000Y-214060000D03*
G04 #@! TO.P,DA4,7*
G04 #@! TO.N,/ADC7*
X430760000Y-215330000D03*
G04 #@! TO.P,DA4,6*
G04 #@! TO.N,Net-(DA4-Pad6)*
X430760000Y-216600000D03*
G04 #@! TO.P,DA4,5*
G04 #@! TO.N,Net-(DA4-Pad3)*
X430760000Y-217870000D03*
G04 #@! TD*
D31*
G04 #@! TO.P,DD1,1*
G04 #@! TO.N,GND*
X555185000Y-171410000D03*
G04 #@! TO.P,DD1,2*
G04 #@! TO.N,+3V3*
X555185000Y-172680000D03*
G04 #@! TO.P,DD1,3*
G04 #@! TO.N,/EN*
X555185000Y-173950000D03*
G04 #@! TO.P,DD1,4*
G04 #@! TO.N,Net-(DD1-Pad4)*
X555185000Y-175220000D03*
G04 #@! TO.P,DD1,5*
G04 #@! TO.N,Net-(DD1-Pad5)*
X555185000Y-176490000D03*
G04 #@! TO.P,DD1,6*
G04 #@! TO.N,/ADC6*
X555185000Y-177760000D03*
G04 #@! TO.P,DD1,7*
G04 #@! TO.N,/ADC7*
X555185000Y-179030000D03*
G04 #@! TO.P,DD1,8*
G04 #@! TO.N,Net-(DD1-Pad8)*
X555185000Y-180300000D03*
G04 #@! TO.P,DD1,9*
G04 #@! TO.N,Net-(DD1-Pad9)*
X555185000Y-181570000D03*
G04 #@! TO.P,DD1,10*
G04 #@! TO.N,/RE_BTN*
X555185000Y-182840000D03*
G04 #@! TO.P,DD1,11*
G04 #@! TO.N,/BINT*
X555185000Y-184110000D03*
G04 #@! TO.P,DD1,12*
G04 #@! TO.N,/PH_SW*
X555185000Y-185380000D03*
G04 #@! TO.P,DD1,13*
G04 #@! TO.N,/DC*
X555185000Y-186650000D03*
G04 #@! TO.P,DD1,14*
G04 #@! TO.N,Net-(DD1-Pad14)*
X555185000Y-187920000D03*
D32*
G04 #@! TO.P,DD1,15*
G04 #@! TO.N,GND*
X557970000Y-189015000D03*
G04 #@! TO.P,DD1,16*
G04 #@! TO.N,/RES*
X559240000Y-189015000D03*
G04 #@! TO.P,DD1,17*
G04 #@! TO.N,Net-(DD1-Pad17)*
X560510000Y-189015000D03*
G04 #@! TO.P,DD1,18*
G04 #@! TO.N,Net-(DD1-Pad18)*
X561780000Y-189015000D03*
G04 #@! TO.P,DD1,19*
G04 #@! TO.N,Net-(DD1-Pad19)*
X563050000Y-189015000D03*
G04 #@! TO.P,DD1,20*
G04 #@! TO.N,Net-(DD1-Pad20)*
X564320000Y-189015000D03*
G04 #@! TO.P,DD1,21*
G04 #@! TO.N,Net-(DD1-Pad21)*
X565590000Y-189015000D03*
G04 #@! TO.P,DD1,22*
G04 #@! TO.N,Net-(DD1-Pad22)*
X566860000Y-189015000D03*
G04 #@! TO.P,DD1,23*
G04 #@! TO.N,Net-(DD1-Pad23)*
X568130000Y-189015000D03*
G04 #@! TO.P,DD1,24*
G04 #@! TO.N,Net-(DD1-Pad24)*
X569400000Y-189015000D03*
D31*
G04 #@! TO.P,DD1,25*
G04 #@! TO.N,/IO0*
X572185000Y-187920000D03*
G04 #@! TO.P,DD1,26*
G04 #@! TO.N,/CS0*
X572185000Y-186650000D03*
G04 #@! TO.P,DD1,27*
G04 #@! TO.N,/MOSI*
X572185000Y-185380000D03*
G04 #@! TO.P,DD1,28*
G04 #@! TO.N,/ONEWIRE*
X572185000Y-184110000D03*
G04 #@! TO.P,DD1,29*
G04 #@! TO.N,Net-(DD1-Pad29)*
X572185000Y-182840000D03*
G04 #@! TO.P,DD1,30*
G04 #@! TO.N,/SCLK*
X572185000Y-181570000D03*
G04 #@! TO.P,DD1,31*
G04 #@! TO.N,/SCL*
X572185000Y-180300000D03*
G04 #@! TO.P,DD1,32*
G04 #@! TO.N,N/C*
X572185000Y-179030000D03*
G04 #@! TO.P,DD1,33*
G04 #@! TO.N,/SDA*
X572185000Y-177760000D03*
G04 #@! TO.P,DD1,34*
G04 #@! TO.N,/RXD*
X572185000Y-176490000D03*
G04 #@! TO.P,DD1,35*
G04 #@! TO.N,/TXD*
X572185000Y-175220000D03*
G04 #@! TO.P,DD1,36*
G04 #@! TO.N,/RE_A*
X572185000Y-173950000D03*
G04 #@! TO.P,DD1,37*
G04 #@! TO.N,/RE_B*
X572185000Y-172680000D03*
G04 #@! TO.P,DD1,38*
G04 #@! TO.N,GND*
X572185000Y-171410000D03*
D33*
G04 #@! TO.P,DD1,39*
X562685000Y-178755000D03*
G04 #@! TD*
D34*
G04 #@! TO.P,DD2,1*
G04 #@! TO.N,+3V3*
X541445000Y-201550000D03*
G04 #@! TO.P,DD2,2*
G04 #@! TO.N,GND*
X540175000Y-201550000D03*
G04 #@! TO.P,DD2,3*
X538905000Y-201550000D03*
G04 #@! TO.P,DD2,4*
G04 #@! TO.N,/B_DISPLAY*
X537635000Y-201550000D03*
G04 #@! TO.P,DD2,5*
G04 #@! TO.N,/B_MUTE*
X536365000Y-201550000D03*
G04 #@! TO.P,DD2,6*
G04 #@! TO.N,/B_INPUT*
X535095000Y-201550000D03*
G04 #@! TO.P,DD2,7*
G04 #@! TO.N,/B_PHONES*
X533825000Y-201550000D03*
G04 #@! TO.P,DD2,8*
G04 #@! TO.N,GND*
X532555000Y-201550000D03*
G04 #@! TO.P,DD2,16*
G04 #@! TO.N,+3V3*
X541445000Y-210450000D03*
G04 #@! TO.P,DD2,15*
G04 #@! TO.N,/SDA*
X540175000Y-210450000D03*
G04 #@! TO.P,DD2,14*
G04 #@! TO.N,/SCL*
X538905000Y-210450000D03*
G04 #@! TO.P,DD2,13*
G04 #@! TO.N,/BINT*
X537635000Y-210450000D03*
G04 #@! TO.P,DD2,12*
G04 #@! TO.N,/B_MINUS*
X536365000Y-210450000D03*
G04 #@! TO.P,DD2,11*
G04 #@! TO.N,/B_PLUS*
X535095000Y-210450000D03*
G04 #@! TO.P,DD2,10*
G04 #@! TO.N,/B_SETTINGS*
X533825000Y-210450000D03*
G04 #@! TO.P,DD2,9*
G04 #@! TO.N,/B_DEFEAT*
X532555000Y-210450000D03*
G04 #@! TD*
D35*
G04 #@! TO.P,K1,7*
G04 #@! TO.N,/LOUT*
X426680000Y-169215000D03*
G04 #@! TO.P,K1,4*
G04 #@! TO.N,/ROUT*
X434680000Y-169215000D03*
G04 #@! TO.P,K1,10*
G04 #@! TO.N,Net-(K1-Pad10)*
X426680000Y-176835000D03*
G04 #@! TO.P,K1,8*
G04 #@! TO.N,Net-(K1-Pad8)*
X426680000Y-171755000D03*
G04 #@! TO.P,K1,1*
G04 #@! TO.N,+5V*
X434680000Y-176835000D03*
G04 #@! TO.P,K1,3*
G04 #@! TO.N,Net-(K1-Pad3)*
X434680000Y-171755000D03*
G04 #@! TO.P,K1,6*
G04 #@! TO.N,Net-(K1-Pad6)*
X426680000Y-166675000D03*
G04 #@! TO.P,K1,5*
G04 #@! TO.N,Net-(K1-Pad5)*
X434680000Y-166675000D03*
G04 #@! TD*
D36*
G04 #@! TO.P,R1,1*
G04 #@! TO.N,+3V3*
X548000000Y-218850000D03*
G04 #@! TO.P,R1,2*
G04 #@! TO.N,/SDA*
X548000000Y-217150000D03*
G04 #@! TD*
G04 #@! TO.P,R2,2*
G04 #@! TO.N,/SCL*
X544000000Y-217150000D03*
G04 #@! TO.P,R2,1*
G04 #@! TO.N,+3V3*
X544000000Y-218850000D03*
G04 #@! TD*
D19*
G04 #@! TO.P,R3,2*
G04 #@! TO.N,/ONEWIRE*
X578231000Y-164338000D03*
G04 #@! TO.P,R3,1*
G04 #@! TO.N,+3V3*
X579931000Y-164338000D03*
G04 #@! TD*
G04 #@! TO.P,R4,2*
G04 #@! TO.N,Net-(C11-Pad1)*
X390945000Y-208280000D03*
G04 #@! TO.P,R4,1*
G04 #@! TO.N,AGND*
X392645000Y-208280000D03*
G04 #@! TD*
G04 #@! TO.P,R5,1*
G04 #@! TO.N,AGND*
X379070000Y-187265000D03*
G04 #@! TO.P,R5,2*
G04 #@! TO.N,Net-(C13-Pad1)*
X380770000Y-187265000D03*
G04 #@! TD*
G04 #@! TO.P,R6,2*
G04 #@! TO.N,/PH_SW*
X417765000Y-184455000D03*
G04 #@! TO.P,R6,1*
G04 #@! TO.N,Net-(R6-Pad1)*
X419465000Y-184455000D03*
G04 #@! TD*
D36*
G04 #@! TO.P,R7,2*
G04 #@! TO.N,Net-(DA4-Pad2)*
X425520000Y-209195000D03*
G04 #@! TO.P,R7,1*
G04 #@! TO.N,/LOUT*
X425520000Y-207495000D03*
G04 #@! TD*
G04 #@! TO.P,R8,2*
G04 #@! TO.N,Net-(DA4-Pad6)*
X430600000Y-209195000D03*
G04 #@! TO.P,R8,1*
G04 #@! TO.N,/ROUT*
X430600000Y-207495000D03*
G04 #@! TD*
D19*
G04 #@! TO.P,R9,1*
G04 #@! TO.N,+3V3*
X437730000Y-225425000D03*
G04 #@! TO.P,R9,2*
G04 #@! TO.N,Net-(DA4-Pad3)*
X436030000Y-225425000D03*
G04 #@! TD*
G04 #@! TO.P,R10,1*
G04 #@! TO.N,Net-(DA4-Pad3)*
X436000000Y-221000000D03*
G04 #@! TO.P,R10,2*
G04 #@! TO.N,GND*
X437700000Y-221000000D03*
G04 #@! TD*
D36*
G04 #@! TO.P,R11,2*
G04 #@! TO.N,Net-(C18-Pad1)*
X395580000Y-173930000D03*
G04 #@! TO.P,R11,1*
G04 #@! TO.N,AGND*
X395580000Y-172230000D03*
G04 #@! TD*
G04 #@! TO.P,R12,1*
G04 #@! TO.N,AGND*
X391135000Y-172230000D03*
G04 #@! TO.P,R12,2*
G04 #@! TO.N,Net-(C20-Pad1)*
X391135000Y-173930000D03*
G04 #@! TD*
G04 #@! TO.P,R13,1*
G04 #@! TO.N,Net-(DA4-Pad2)*
X419805000Y-215330000D03*
G04 #@! TO.P,R13,2*
G04 #@! TO.N,/ADC6*
X419805000Y-213630000D03*
G04 #@! TD*
G04 #@! TO.P,R14,2*
G04 #@! TO.N,Net-(DA4-Pad6)*
X436950000Y-216600000D03*
G04 #@! TO.P,R14,1*
G04 #@! TO.N,/ADC7*
X436950000Y-214900000D03*
G04 #@! TD*
G04 #@! TO.P,R15,1*
G04 #@! TO.N,+3V3*
X541000000Y-193150000D03*
G04 #@! TO.P,R15,2*
G04 #@! TO.N,/B_DISPLAY*
X541000000Y-194850000D03*
G04 #@! TD*
G04 #@! TO.P,R16,2*
G04 #@! TO.N,/B_MUTE*
X537000000Y-194850000D03*
G04 #@! TO.P,R16,1*
G04 #@! TO.N,+3V3*
X537000000Y-193150000D03*
G04 #@! TD*
G04 #@! TO.P,R17,1*
G04 #@! TO.N,+3V3*
X533000000Y-193150000D03*
G04 #@! TO.P,R17,2*
G04 #@! TO.N,/B_INPUT*
X533000000Y-194850000D03*
G04 #@! TD*
G04 #@! TO.P,R18,1*
G04 #@! TO.N,+3V3*
X529000000Y-193300000D03*
G04 #@! TO.P,R18,2*
G04 #@! TO.N,/B_PHONES*
X529000000Y-195000000D03*
G04 #@! TD*
G04 #@! TO.P,R19,1*
G04 #@! TO.N,+3V3*
X527812000Y-218850000D03*
G04 #@! TO.P,R19,2*
G04 #@! TO.N,/B_DEFEAT*
X527812000Y-217150000D03*
G04 #@! TD*
G04 #@! TO.P,R20,2*
G04 #@! TO.N,/B_SETTINGS*
X532000000Y-217150000D03*
G04 #@! TO.P,R20,1*
G04 #@! TO.N,+3V3*
X532000000Y-218850000D03*
G04 #@! TD*
G04 #@! TO.P,R21,1*
G04 #@! TO.N,+3V3*
X536000000Y-218850000D03*
G04 #@! TO.P,R21,2*
G04 #@! TO.N,/B_PLUS*
X536000000Y-217150000D03*
G04 #@! TD*
G04 #@! TO.P,R22,2*
G04 #@! TO.N,/B_MINUS*
X540000000Y-217150000D03*
G04 #@! TO.P,R22,1*
G04 #@! TO.N,+3V3*
X540000000Y-218850000D03*
G04 #@! TD*
G04 #@! TO.P,R23,1*
G04 #@! TO.N,+3V3*
X544635000Y-168045000D03*
G04 #@! TO.P,R23,2*
G04 #@! TO.N,/EN*
X544635000Y-169745000D03*
G04 #@! TD*
D19*
G04 #@! TO.P,R24,1*
G04 #@! TO.N,+3V3*
X583165000Y-187945000D03*
G04 #@! TO.P,R24,2*
G04 #@! TO.N,/IO0*
X581465000Y-187945000D03*
G04 #@! TD*
D36*
G04 #@! TO.P,R25,2*
G04 #@! TO.N,Net-(R25-Pad2)*
X522000000Y-165165000D03*
G04 #@! TO.P,R25,1*
G04 #@! TO.N,Net-(R25-Pad1)*
X522000000Y-163465000D03*
G04 #@! TD*
D18*
G04 #@! TO.P,SB1,1*
G04 #@! TO.N,/B_DISPLAY*
X583250000Y-231750000D03*
G04 #@! TO.P,SB1,2*
X576750000Y-231750000D03*
G04 #@! TO.P,SB1,3*
G04 #@! TO.N,GND*
X583250000Y-236250000D03*
G04 #@! TO.P,SB1,4*
X576750000Y-236250000D03*
G04 #@! TD*
G04 #@! TO.P,SB2,4*
G04 #@! TO.N,GND*
X516750000Y-236250000D03*
G04 #@! TO.P,SB2,3*
X523250000Y-236250000D03*
G04 #@! TO.P,SB2,2*
G04 #@! TO.N,/B_MUTE*
X516750000Y-231750000D03*
G04 #@! TO.P,SB2,1*
X523250000Y-231750000D03*
G04 #@! TD*
G04 #@! TO.P,SB3,1*
G04 #@! TO.N,/B_INPUT*
X563250000Y-231750000D03*
G04 #@! TO.P,SB3,2*
X556750000Y-231750000D03*
G04 #@! TO.P,SB3,3*
G04 #@! TO.N,GND*
X563250000Y-236250000D03*
G04 #@! TO.P,SB3,4*
X556750000Y-236250000D03*
G04 #@! TD*
G04 #@! TO.P,SB4,4*
G04 #@! TO.N,GND*
X463185000Y-197775000D03*
G04 #@! TO.P,SB4,3*
X456685000Y-197775000D03*
G04 #@! TO.P,SB4,2*
G04 #@! TO.N,/B_PHONES*
X463185000Y-202275000D03*
G04 #@! TO.P,SB4,1*
X456685000Y-202275000D03*
G04 #@! TD*
G04 #@! TO.P,SB5,4*
G04 #@! TO.N,GND*
X536750000Y-236250000D03*
G04 #@! TO.P,SB5,3*
X543250000Y-236250000D03*
G04 #@! TO.P,SB5,2*
G04 #@! TO.N,/B_DEFEAT*
X536750000Y-231750000D03*
G04 #@! TO.P,SB5,1*
X543250000Y-231750000D03*
G04 #@! TD*
G04 #@! TO.P,SB6,4*
G04 #@! TO.N,GND*
X496750000Y-236250000D03*
G04 #@! TO.P,SB6,3*
X503250000Y-236250000D03*
G04 #@! TO.P,SB6,2*
G04 #@! TO.N,/B_SETTINGS*
X496750000Y-231750000D03*
G04 #@! TO.P,SB6,1*
X503250000Y-231750000D03*
G04 #@! TD*
G04 #@! TO.P,SB7,1*
G04 #@! TO.N,/B_PLUS*
X463250000Y-217750000D03*
G04 #@! TO.P,SB7,2*
X456750000Y-217750000D03*
G04 #@! TO.P,SB7,3*
G04 #@! TO.N,GND*
X463250000Y-222250000D03*
G04 #@! TO.P,SB7,4*
X456750000Y-222250000D03*
G04 #@! TD*
G04 #@! TO.P,SB8,1*
G04 #@! TO.N,/B_MINUS*
X463250000Y-237750000D03*
G04 #@! TO.P,SB8,2*
X456750000Y-237750000D03*
G04 #@! TO.P,SB8,3*
G04 #@! TO.N,GND*
X463250000Y-242250000D03*
G04 #@! TO.P,SB8,4*
X456750000Y-242250000D03*
G04 #@! TD*
D37*
G04 #@! TO.P,VT1,1*
G04 #@! TO.N,Net-(R6-Pad1)*
X419570000Y-179135000D03*
G04 #@! TO.P,VT1,2*
G04 #@! TO.N,GND*
X421470000Y-179135000D03*
G04 #@! TO.P,VT1,3*
G04 #@! TO.N,Net-(K1-Pad10)*
X420520000Y-176835000D03*
G04 #@! TD*
G04 #@! TO.P,VT2,1*
G04 #@! TO.N,Net-(R25-Pad2)*
X535950000Y-163850000D03*
G04 #@! TO.P,VT2,2*
G04 #@! TO.N,Net-(R26-Pad1)*
X534050000Y-163850000D03*
G04 #@! TO.P,VT2,3*
G04 #@! TO.N,/EN*
X535000000Y-166150000D03*
G04 #@! TD*
G04 #@! TO.P,VT3,3*
G04 #@! TO.N,/IO0*
X527375000Y-166100000D03*
G04 #@! TO.P,VT3,2*
G04 #@! TO.N,Net-(R25-Pad1)*
X526425000Y-163800000D03*
G04 #@! TO.P,VT3,1*
G04 #@! TO.N,Net-(R26-Pad2)*
X528325000Y-163800000D03*
G04 #@! TD*
D15*
G04 #@! TO.P,X1,1*
G04 #@! TO.N,+5V*
X464565000Y-154305000D03*
D16*
G04 #@! TO.P,X1,2*
X467105000Y-154305000D03*
G04 #@! TO.P,X1,3*
G04 #@! TO.N,+12V*
X469645000Y-154305000D03*
G04 #@! TO.P,X1,4*
G04 #@! TO.N,-12V*
X472185000Y-154305000D03*
G04 #@! TO.P,X1,5*
G04 #@! TO.N,GND*
X474725000Y-154305000D03*
G04 #@! TO.P,X1,6*
X477265000Y-154305000D03*
G04 #@! TD*
D15*
G04 #@! TO.P,X3,1*
G04 #@! TO.N,Net-(C1-Pad1)*
X407645000Y-154880000D03*
D16*
G04 #@! TO.P,X3,2*
G04 #@! TO.N,AGND*
X410185000Y-154880000D03*
G04 #@! TO.P,X3,3*
G04 #@! TO.N,Net-(C2-Pad1)*
X412725000Y-154880000D03*
G04 #@! TD*
D15*
G04 #@! TO.P,X4,1*
G04 #@! TO.N,Net-(C3-Pad1)*
X394310000Y-154880000D03*
D16*
G04 #@! TO.P,X4,2*
G04 #@! TO.N,AGND*
X396850000Y-154880000D03*
G04 #@! TO.P,X4,3*
G04 #@! TO.N,Net-(C4-Pad1)*
X399390000Y-154880000D03*
G04 #@! TD*
D15*
G04 #@! TO.P,X5,1*
G04 #@! TO.N,Net-(K1-Pad8)*
X419885000Y-155000000D03*
D16*
G04 #@! TO.P,X5,2*
G04 #@! TO.N,AGND*
X422425000Y-155000000D03*
G04 #@! TO.P,X5,3*
G04 #@! TO.N,Net-(K1-Pad3)*
X424965000Y-155000000D03*
G04 #@! TD*
G04 #@! TO.P,X6,3*
G04 #@! TO.N,Net-(K1-Pad5)*
X438540000Y-155000000D03*
G04 #@! TO.P,X6,2*
G04 #@! TO.N,AGND*
X436000000Y-155000000D03*
D15*
G04 #@! TO.P,X6,1*
G04 #@! TO.N,Net-(K1-Pad6)*
X433460000Y-155000000D03*
G04 #@! TD*
G04 #@! TO.P,X7,1*
G04 #@! TO.N,Net-(R25-Pad1)*
X527185000Y-154000000D03*
D16*
G04 #@! TO.P,X7,2*
G04 #@! TO.N,Net-(R26-Pad1)*
X529725000Y-154000000D03*
G04 #@! TO.P,X7,3*
G04 #@! TO.N,/RXD*
X532265000Y-154000000D03*
G04 #@! TO.P,X7,4*
G04 #@! TO.N,/TXD*
X534805000Y-154000000D03*
G04 #@! TO.P,X7,5*
G04 #@! TO.N,GND*
X537345000Y-154000000D03*
G04 #@! TD*
D38*
G04 #@! TO.N,*
X355000000Y-155000000D03*
X355000000Y-245000000D03*
X595000000Y-245000000D03*
X595000000Y-155000000D03*
X475000000Y-245000000D03*
X475000000Y-215000000D03*
X365000000Y-185000000D03*
X365000000Y-215000000D03*
D39*
G04 #@! TO.N,/RE_BTN*
X421640000Y-187959999D03*
G04 #@! TO.N,GND*
X570480700Y-171564000D03*
X556819200Y-189611100D03*
X565885700Y-178717100D03*
X548067500Y-170312800D03*
X470675400Y-186047700D03*
X556936500Y-171843900D03*
X495999986Y-164000000D03*
X549000000Y-197000000D03*
X555000000Y-197000000D03*
X416941000Y-181483000D03*
X421513000Y-181483000D03*
X395605000Y-192405000D03*
X381000000Y-193675000D03*
X447040000Y-186690000D03*
X539750000Y-198755000D03*
X532765000Y-198755000D03*
X496316000Y-198755000D03*
X543560000Y-171450000D03*
G04 #@! TO.N,/RE_B*
X569188000Y-172552200D03*
G04 #@! TO.N,/RE_A*
X566367500Y-174066700D03*
G04 #@! TO.N,Net-(C4-Pad2)*
X405765000Y-193294000D03*
X399415000Y-164592002D03*
G04 #@! TO.N,AGND*
X391160000Y-170180000D03*
X395605000Y-170180000D03*
X395605000Y-205739986D03*
X400050000Y-205740000D03*
X394335000Y-208280000D03*
X404495000Y-182880000D03*
X379095000Y-184784998D03*
X401955000Y-193294000D03*
X399415004Y-189230000D03*
G04 #@! TO.N,+12V*
X432740900Y-213155500D03*
X472000000Y-159000000D03*
X472000000Y-163000000D03*
G04 #@! TO.N,+3V3*
X544195000Y-201930000D03*
X547370000Y-198755000D03*
X546734996Y-164680010D03*
G04 #@! TO.N,+9V*
X403515300Y-189283100D03*
X400558000Y-193294000D03*
G04 #@! TO.N,/B_DISPLAY*
X539245398Y-205388642D03*
G04 #@! TO.N,/B_MUTE*
X536448000Y-204216000D03*
G04 #@! TO.N,/B_INPUT*
X538734000Y-206248000D03*
G04 #@! TO.N,/B_DEFEAT*
X529336000Y-214884000D03*
G04 #@! TO.N,/B_SETTINGS*
X529844000Y-217423992D03*
G04 #@! TO.N,/B_MINUS*
X502411998Y-216535000D03*
G04 #@! TO.N,/SCLK*
X561264300Y-182421200D03*
G04 #@! TO.N,/MOSI*
X558165000Y-185166000D03*
G04 #@! TO.N,/LOUT*
X425450000Y-194945000D03*
X429895000Y-172720000D03*
G04 #@! TO.N,/ROUT*
X432336900Y-170063200D03*
X430530000Y-194310000D03*
X404495000Y-199390000D03*
G04 #@! TO.N,/SDA*
X570337700Y-177575000D03*
X543560000Y-204216000D03*
G04 #@! TO.N,/SCL*
X566210700Y-179881300D03*
X537500000Y-208500004D03*
X535432000Y-206375000D03*
G04 #@! TO.N,/ADC6*
X466375000Y-178177400D03*
X428878999Y-211836000D03*
G04 #@! TO.N,-12V*
X427609000Y-217932000D03*
G04 #@! TO.N,/ADC7*
X486493100Y-185727600D03*
X459415000Y-212805700D03*
G04 #@! TO.N,/BINT*
X545465000Y-211455000D03*
X544195000Y-194100000D03*
X541020000Y-184150000D03*
X538480000Y-212852000D03*
G04 #@! TO.N,/IO0*
X548919500Y-190568400D03*
X536447998Y-176911000D03*
G04 #@! TO.N,/TXD*
X556809700Y-174972900D03*
G04 #@! TD*
D40*
G04 #@! TO.N,/RE_BTN*
X354000000Y-200950000D02*
X356433000Y-200950000D01*
X356433000Y-200950000D02*
X357993000Y-202510000D01*
X422039999Y-188359998D02*
X421640000Y-187959999D01*
X501690000Y-182840000D02*
X495800010Y-188729990D01*
X487607878Y-189865000D02*
X423545001Y-189865000D01*
X555185000Y-182840000D02*
X501690000Y-182840000D01*
X495800010Y-188729990D02*
X488742888Y-188729990D01*
X488742888Y-188729990D02*
X487607878Y-189865000D01*
X423545001Y-189865000D02*
X422039999Y-188359998D01*
D41*
G04 #@! TO.N,GND*
X570480700Y-171564000D02*
X570634700Y-171410000D01*
X572185000Y-171410000D02*
X570634700Y-171410000D01*
X556819200Y-189611100D02*
X557373900Y-189611100D01*
X557373900Y-189611100D02*
X557970000Y-189015000D01*
X565885700Y-178717100D02*
X565773200Y-178717100D01*
X565773200Y-178717100D02*
X565735300Y-178755000D01*
X562685000Y-178755000D02*
X565735300Y-178755000D01*
X548067500Y-170312800D02*
X548239700Y-170485000D01*
X549715000Y-170485000D02*
X548239700Y-170485000D01*
X470675400Y-186047700D02*
X470829700Y-185893400D01*
X470829700Y-185893400D02*
X470829700Y-184785000D01*
X476630000Y-184785000D02*
X470829700Y-184785000D01*
X556735300Y-171410000D02*
X556735300Y-171642700D01*
X556735300Y-171642700D02*
X556936500Y-171843900D01*
X555185000Y-171410000D02*
X556735300Y-171410000D01*
X493340000Y-165555000D02*
X494444986Y-165555000D01*
X495599987Y-164399999D02*
X495999986Y-164000000D01*
X494444986Y-165555000D02*
X495599987Y-164399999D01*
X490700000Y-198730000D02*
X493240000Y-198730000D01*
X555000000Y-197000000D02*
X549000000Y-197000000D01*
X356453000Y-199050000D02*
X357993000Y-197510000D01*
X354000000Y-199050000D02*
X356453000Y-199050000D01*
X360493000Y-200010000D02*
X372493000Y-200010000D01*
X357993000Y-197510000D02*
X360493000Y-200010000D01*
X395580000Y-195775000D02*
X395580000Y-192430000D01*
X395580000Y-192430000D02*
X395605000Y-192405000D01*
X416941000Y-181483000D02*
X408071200Y-190352800D01*
X396004999Y-192005001D02*
X395605000Y-192405000D01*
X408071200Y-190352800D02*
X397657200Y-190352800D01*
X397657200Y-190352800D02*
X396004999Y-192005001D01*
X374665000Y-200010000D02*
X380600001Y-194074999D01*
X372493000Y-200010000D02*
X374665000Y-200010000D01*
X380600001Y-194074999D02*
X381000000Y-193675000D01*
X426339000Y-186690000D02*
X446474315Y-186690000D01*
X421470000Y-181821000D02*
X426339000Y-186690000D01*
X446474315Y-186690000D02*
X447040000Y-186690000D01*
X421470000Y-179135000D02*
X421470000Y-181821000D01*
X452950000Y-221000000D02*
X453000000Y-220950000D01*
X437700000Y-221000000D02*
X452950000Y-221000000D01*
X455450000Y-220950000D02*
X456750000Y-222250000D01*
X453000000Y-220950000D02*
X455450000Y-220950000D01*
X495445000Y-234945000D02*
X496750000Y-236250000D01*
X492760000Y-234945000D02*
X495445000Y-234945000D01*
X515500000Y-235000000D02*
X516750000Y-236250000D01*
X513000000Y-235000000D02*
X515500000Y-235000000D01*
X535715000Y-235215000D02*
X536750000Y-236250000D01*
X533175000Y-235215000D02*
X535715000Y-235215000D01*
X555500000Y-235000000D02*
X556750000Y-236250000D01*
X553130000Y-235000000D02*
X555500000Y-235000000D01*
X575500000Y-235000000D02*
X576750000Y-236250000D01*
X573000000Y-235000000D02*
X575500000Y-235000000D01*
X455435000Y-240935000D02*
X456750000Y-242250000D01*
X453000000Y-240935000D02*
X455435000Y-240935000D01*
X540175000Y-201550000D02*
X538905000Y-201550000D01*
X532555000Y-198965000D02*
X532765000Y-198755000D01*
X532555000Y-201550000D02*
X532555000Y-198965000D01*
X540004000Y-199009000D02*
X539750000Y-198755000D01*
X540004000Y-200166500D02*
X540004000Y-199009000D01*
X540175000Y-201550000D02*
X540175000Y-200337500D01*
X540175000Y-200337500D02*
X540004000Y-200166500D01*
X496291000Y-198730000D02*
X496316000Y-198755000D01*
X493240000Y-198730000D02*
X496291000Y-198730000D01*
X456402000Y-197775000D02*
X456685000Y-197775000D01*
X455295000Y-198882000D02*
X456402000Y-197775000D01*
X452950000Y-198755000D02*
X453077000Y-198882000D01*
X453077000Y-198882000D02*
X455295000Y-198882000D01*
X543540000Y-171430000D02*
X543560000Y-171450000D01*
X540825000Y-171430000D02*
X543540000Y-171430000D01*
X456750000Y-222250000D02*
X463250000Y-222250000D01*
D40*
G04 #@! TO.N,/RE_B*
X572185000Y-172680000D02*
X569315800Y-172680000D01*
X569315800Y-172680000D02*
X569188000Y-172552200D01*
G04 #@! TO.N,/RE_A*
X572185000Y-173950000D02*
X570834700Y-173950000D01*
X566367500Y-174066700D02*
X570718000Y-174066700D01*
X570718000Y-174066700D02*
X570834700Y-173950000D01*
D42*
G04 #@! TO.N,Net-(C1-Pad2)*
X407645000Y-162495000D02*
X407645000Y-163770300D01*
X401930000Y-186375000D02*
X401930000Y-184887200D01*
X401930000Y-184887200D02*
X402220000Y-184597200D01*
X402220000Y-184597200D02*
X402220000Y-169195300D01*
X402220000Y-169195300D02*
X407645000Y-163770300D01*
G04 #@! TO.N,Net-(C1-Pad1)*
X407645000Y-154880000D02*
X407645000Y-160595000D01*
G04 #@! TO.N,Net-(C2-Pad1)*
X412725000Y-154880000D02*
X412725000Y-160595000D01*
G04 #@! TO.N,Net-(C2-Pad2)*
X412725000Y-162495000D02*
X412725000Y-163770300D01*
X403200000Y-186375000D02*
X403200000Y-173295300D01*
X403200000Y-173295300D02*
X412725000Y-163770300D01*
G04 #@! TO.N,Net-(C3-Pad1)*
X394310000Y-154880000D02*
X394310000Y-160595000D01*
G04 #@! TO.N,Net-(C3-Pad2)*
X394310000Y-162495000D02*
X394310000Y-163770300D01*
X398120000Y-186375000D02*
X398120000Y-184599100D01*
X398120000Y-184599100D02*
X401462100Y-181257000D01*
X401462100Y-181257000D02*
X401462100Y-170922400D01*
X401462100Y-170922400D02*
X394310000Y-163770300D01*
G04 #@! TO.N,Net-(C4-Pad2)*
X405740000Y-195775000D02*
X405740000Y-193319000D01*
X405740000Y-193319000D02*
X405765000Y-193294000D01*
X399390000Y-164567002D02*
X399415000Y-164592002D01*
X399390000Y-162500000D02*
X399390000Y-164567002D01*
G04 #@! TO.N,Net-(C4-Pad1)*
X399390000Y-154880000D02*
X399390000Y-160600000D01*
D40*
G04 #@! TO.N,Net-(C5-Pad1)*
X399390000Y-197062500D02*
X399390000Y-195775000D01*
X399390000Y-197250000D02*
X399390000Y-197062500D01*
X404280000Y-202140000D02*
X399390000Y-197250000D01*
X405105000Y-202140000D02*
X404280000Y-202140000D01*
D41*
G04 #@! TO.N,AGND*
X405740000Y-186375000D02*
X404470000Y-186375000D01*
X391135000Y-172230000D02*
X391135000Y-170205000D01*
X391135000Y-170205000D02*
X391160000Y-170180000D01*
X395580000Y-172230000D02*
X395580000Y-170205000D01*
X395580000Y-170205000D02*
X395605000Y-170180000D01*
X395580000Y-205714986D02*
X395605000Y-205739986D01*
X395580000Y-203770000D02*
X395580000Y-205714986D01*
X400025000Y-203770000D02*
X400025000Y-205715000D01*
X400025000Y-205715000D02*
X400050000Y-205740000D01*
X392645000Y-208280000D02*
X394335000Y-208280000D01*
X400660000Y-186375000D02*
X399390000Y-186375000D01*
X404470000Y-182905000D02*
X404495000Y-182880000D01*
X404470000Y-186375000D02*
X404470000Y-182905000D01*
X379070000Y-187265000D02*
X379070000Y-184809998D01*
X379070000Y-184809998D02*
X379095000Y-184784998D01*
X401930000Y-193319000D02*
X401955000Y-193294000D01*
X401930000Y-195775000D02*
X401930000Y-193319000D01*
X399390000Y-189204996D02*
X399415004Y-189230000D01*
X399390000Y-186375000D02*
X399390000Y-189204996D01*
G04 #@! TO.N,+5V*
X486000000Y-162075300D02*
X486685600Y-162075300D01*
X486685600Y-162075300D02*
X488740000Y-164129700D01*
X486000000Y-161000000D02*
X486000000Y-162075300D01*
X488740000Y-165555000D02*
X488740000Y-164129700D01*
X467105000Y-154305000D02*
X465715300Y-154305000D01*
X464565000Y-154305000D02*
X465715300Y-154305000D01*
X470000000Y-161000000D02*
X486000000Y-161000000D01*
X468000000Y-159000000D02*
X470000000Y-161000000D01*
X467105000Y-154305000D02*
X468000000Y-155200000D01*
X468000000Y-155200000D02*
X468000000Y-159000000D01*
X434490000Y-177025000D02*
X434680000Y-176835000D01*
X434490000Y-183820000D02*
X434490000Y-177025000D01*
G04 #@! TO.N,+12V*
X432072800Y-214060000D02*
X432072800Y-213823600D01*
X432072800Y-213823600D02*
X432740900Y-213155500D01*
X430760000Y-214060000D02*
X432072800Y-214060000D01*
X469645000Y-154305000D02*
X469645000Y-156645000D01*
X469645000Y-156645000D02*
X472000000Y-159000000D01*
X472000000Y-163000000D02*
X472000000Y-167585000D01*
X472000000Y-173520000D02*
X472000000Y-167585000D01*
X473065000Y-174585000D02*
X472000000Y-173520000D01*
X474090000Y-174585000D02*
X473065000Y-174585000D01*
X472000000Y-168890000D02*
X469645000Y-168890000D01*
X472000000Y-167585000D02*
X472000000Y-168890000D01*
G04 #@! TO.N,+3V3*
X545350300Y-218850000D02*
X545375400Y-218875100D01*
X545375400Y-218875100D02*
X547974900Y-218875100D01*
X547974900Y-218875100D02*
X548000000Y-218850000D01*
X529000000Y-193300000D02*
X530350300Y-193300000D01*
X533000000Y-193150000D02*
X530500300Y-193150000D01*
X530500300Y-193150000D02*
X530350300Y-193300000D01*
X537000000Y-193150000D02*
X533000000Y-193150000D01*
X491040000Y-165555000D02*
X491040000Y-166980300D01*
X491040000Y-171855000D02*
X493190300Y-171855000D01*
X493000000Y-161100300D02*
X491040000Y-163060300D01*
X491040000Y-163060300D02*
X491040000Y-165555000D01*
X493190300Y-171855000D02*
X493190300Y-169130600D01*
X493190300Y-169130600D02*
X491040000Y-166980300D01*
X544000000Y-218850000D02*
X545350300Y-218850000D01*
X493000000Y-160000000D02*
X493000000Y-161100300D01*
X579310300Y-193150000D02*
X583165000Y-189295300D01*
X583165000Y-187945000D02*
X583165000Y-189295300D01*
X537000000Y-193150000D02*
X541000000Y-193150000D01*
X540000000Y-218850000D02*
X544000000Y-218850000D01*
X550252600Y-172385000D02*
X549715000Y-172385000D01*
X550252600Y-172385000D02*
X551190300Y-172385000D01*
X555185000Y-172680000D02*
X551485300Y-172680000D01*
X551485300Y-172680000D02*
X551190300Y-172385000D01*
X541000000Y-193150000D02*
X542350300Y-193150000D01*
X540000000Y-218850000D02*
X536000000Y-218850000D01*
X532000000Y-218850000D02*
X536000000Y-218850000D01*
X541445000Y-201550000D02*
X543815000Y-201550000D01*
X543815000Y-201550000D02*
X544195000Y-201930000D01*
X542350300Y-193150000D02*
X546735000Y-193150000D01*
X546735000Y-193150000D02*
X579310300Y-193150000D01*
X549300000Y-218850000D02*
X548000000Y-218850000D01*
X550545000Y-217605000D02*
X549300000Y-218850000D01*
X547370000Y-198755000D02*
X550545000Y-201930000D01*
X547370000Y-193785000D02*
X546735000Y-193150000D01*
X547370000Y-198755000D02*
X547370000Y-193785000D01*
X542245000Y-210450000D02*
X546425000Y-214630000D01*
X541445000Y-210450000D02*
X542245000Y-210450000D01*
X546425000Y-214630000D02*
X550545000Y-214630000D01*
X550545000Y-201930000D02*
X550545000Y-214630000D01*
X550545000Y-214630000D02*
X550545000Y-217605000D01*
X579931000Y-164638000D02*
X579931000Y-164338000D01*
X583184000Y-168021000D02*
X583184000Y-167891000D01*
X583184000Y-167891000D02*
X579931000Y-164638000D01*
X583165000Y-187945000D02*
X583165000Y-168040000D01*
X583165000Y-168040000D02*
X583184000Y-168021000D01*
X579931000Y-164338000D02*
X579931000Y-155751000D01*
X579931000Y-155751000D02*
X576453000Y-152273000D01*
X546735000Y-161480000D02*
X546735000Y-152273000D01*
X546750000Y-161495000D02*
X546735000Y-161480000D01*
X546750000Y-162545000D02*
X546750000Y-161495000D01*
X576453000Y-152273000D02*
X546735000Y-152273000D01*
X544576000Y-167767000D02*
X544635000Y-167826000D01*
X544635000Y-167826000D02*
X544635000Y-168045000D01*
X437730000Y-225425000D02*
X526425000Y-225425000D01*
X526425000Y-225425000D02*
X532000000Y-219850000D01*
X532000000Y-219850000D02*
X532000000Y-218850000D01*
X527812000Y-218850000D02*
X532000000Y-218850000D01*
X493014000Y-159385000D02*
X493014000Y-160020000D01*
X546735000Y-152273000D02*
X500126000Y-152273000D01*
X500126000Y-152273000D02*
X493014000Y-159385000D01*
X548290000Y-172385000D02*
X546734996Y-170829996D01*
X549715000Y-172385000D02*
X548290000Y-172385000D01*
X546710996Y-168045000D02*
X546734996Y-168021000D01*
X544635000Y-168045000D02*
X546710996Y-168045000D01*
X546734996Y-170829996D02*
X546734996Y-168021000D01*
X546734996Y-168021000D02*
X546734996Y-164680010D01*
G04 #@! TO.N,+9V*
X479170000Y-168390000D02*
X479170000Y-174585000D01*
X404909400Y-189283100D02*
X419186500Y-175006000D01*
X403515300Y-189283100D02*
X404909400Y-189283100D01*
X478094700Y-174585000D02*
X479170000Y-174585000D01*
X419186500Y-175006000D02*
X453136800Y-175006000D01*
X455130800Y-177000000D02*
X475679700Y-177000000D01*
X475679700Y-177000000D02*
X478094700Y-174585000D01*
X453136800Y-175006000D02*
X455130800Y-177000000D01*
X400660000Y-193396000D02*
X400558000Y-193294000D01*
X400660000Y-195775000D02*
X400660000Y-193396000D01*
D42*
G04 #@! TO.N,/TREB_L*
X395580000Y-201870000D02*
X395580000Y-200594700D01*
X393040000Y-195775000D02*
X393040000Y-198054700D01*
X393040000Y-198054700D02*
X395580000Y-200594700D01*
G04 #@! TO.N,/MIN_L*
X391135000Y-201870000D02*
X391135000Y-200594700D01*
X391770000Y-195775000D02*
X391770000Y-199959700D01*
X391770000Y-199959700D02*
X391135000Y-200594700D01*
G04 #@! TO.N,Net-(C11-Pad1)*
X386690000Y-203770000D02*
X391135000Y-203770000D01*
X391135000Y-208090000D02*
X390945000Y-208280000D01*
X391135000Y-203770000D02*
X391135000Y-208090000D01*
G04 #@! TO.N,/MOUT_L*
X390500000Y-196885000D02*
X390500000Y-195775000D01*
X386690000Y-200695000D02*
X390500000Y-196885000D01*
X386690000Y-201870000D02*
X386690000Y-200695000D01*
G04 #@! TO.N,Net-(C13-Pad1)*
X383280200Y-187265000D02*
X383280200Y-192104900D01*
X383280200Y-192104900D02*
X384785000Y-193609700D01*
X384785000Y-187260000D02*
X383285200Y-187260000D01*
X383285200Y-187260000D02*
X383280200Y-187265000D01*
X383280200Y-187265000D02*
X381770300Y-187265000D01*
X384785000Y-194885000D02*
X384785000Y-193609700D01*
X380770000Y-187265000D02*
X381770300Y-187265000D01*
G04 #@! TO.N,/BIN_L*
X389230000Y-184887200D02*
X386683100Y-184887200D01*
X386683100Y-184887200D02*
X386210300Y-185360000D01*
X384785000Y-185360000D02*
X386210300Y-185360000D01*
X389230000Y-186375000D02*
X389230000Y-184887200D01*
G04 #@! TO.N,/BOUT_L*
X388220000Y-196785000D02*
X389230000Y-195775000D01*
X384785000Y-196785000D02*
X388220000Y-196785000D01*
G04 #@! TO.N,/TREB_R*
X394310000Y-197480000D02*
X398700000Y-201870000D01*
X398700000Y-201870000D02*
X400025000Y-201870000D01*
X394310000Y-195775000D02*
X394310000Y-197480000D01*
G04 #@! TO.N,/MIN_R*
X400025000Y-180365000D02*
X400025000Y-180280000D01*
X394970000Y-184150000D02*
X396240000Y-184150000D01*
X396240000Y-184150000D02*
X400025000Y-180365000D01*
X394310000Y-186375000D02*
X394310000Y-184810000D01*
X394310000Y-184810000D02*
X394970000Y-184150000D01*
G04 #@! TO.N,Net-(C18-Pad1)*
X395580000Y-177104700D02*
X395580000Y-178380000D01*
X395580000Y-173930000D02*
X395580000Y-177104700D01*
X400025000Y-178435000D02*
X400025000Y-178380000D01*
X395605000Y-178435000D02*
X400025000Y-178435000D01*
G04 #@! TO.N,/MOUT_R*
X395580000Y-180280000D02*
X395580000Y-181555300D01*
X393040000Y-186375000D02*
X393040000Y-184095300D01*
X393040000Y-184095300D02*
X395580000Y-181555300D01*
G04 #@! TO.N,/BIN_R*
X391135000Y-180280000D02*
X391135000Y-181555300D01*
X391770000Y-186375000D02*
X391770000Y-182190300D01*
X391770000Y-182190300D02*
X391135000Y-181555300D01*
G04 #@! TO.N,Net-(C20-Pad1)*
X391135000Y-178380000D02*
X391135000Y-174930300D01*
X391135000Y-173930000D02*
X391135000Y-174930300D01*
X391080000Y-178435000D02*
X391135000Y-178380000D01*
X386690000Y-178380000D02*
X386745000Y-178435000D01*
X386745000Y-178435000D02*
X391080000Y-178435000D01*
G04 #@! TO.N,/BOUT_R*
X386690000Y-180950000D02*
X386690000Y-180280000D01*
X390500000Y-186375000D02*
X390500000Y-184760000D01*
X390500000Y-184760000D02*
X386690000Y-180950000D01*
D40*
G04 #@! TO.N,/EN*
X535000000Y-166150000D02*
X535750300Y-166150000D01*
X535750300Y-166150000D02*
X539130300Y-169530000D01*
X539130300Y-169530000D02*
X540825000Y-169530000D01*
X540825000Y-169530000D02*
X542100300Y-169530000D01*
X543484700Y-169745000D02*
X542315300Y-169745000D01*
X542315300Y-169745000D02*
X542100300Y-169530000D01*
X544635000Y-169745000D02*
X543484700Y-169745000D01*
X544635000Y-169745000D02*
X544635000Y-170595300D01*
X555185000Y-173950000D02*
X547989700Y-173950000D01*
X547989700Y-173950000D02*
X544635000Y-170595300D01*
G04 #@! TO.N,/B_DISPLAY*
X583250000Y-231750000D02*
X576750000Y-231750000D01*
X575400000Y-233100000D02*
X576750000Y-231750000D01*
X573000000Y-233100000D02*
X575400000Y-233100000D01*
X541000000Y-195700300D02*
X541000000Y-194850000D01*
X540264700Y-195700300D02*
X541000000Y-195700300D01*
X537635000Y-201550000D02*
X537635000Y-198330000D01*
X537635000Y-198330000D02*
X540264700Y-195700300D01*
X537635000Y-201550000D02*
X537635000Y-203778244D01*
X537635000Y-203778244D02*
X538845399Y-204988643D01*
X538845399Y-204988643D02*
X539245398Y-205388642D01*
G04 #@! TO.N,/B_MUTE*
X537000000Y-195700300D02*
X536365000Y-196335300D01*
X536365000Y-196335300D02*
X536365000Y-200487200D01*
X536365000Y-201550000D02*
X536365000Y-200487200D01*
X537000000Y-194850000D02*
X537000000Y-195700300D01*
X523250000Y-231750000D02*
X516750000Y-231750000D01*
X515400000Y-233100000D02*
X516750000Y-231750000D01*
X513000000Y-233100000D02*
X515400000Y-233100000D01*
X536365000Y-204133000D02*
X536448000Y-204216000D01*
X536365000Y-201550000D02*
X536365000Y-204133000D01*
G04 #@! TO.N,/B_INPUT*
X533000000Y-194850000D02*
X533000000Y-195700300D01*
X535095000Y-201550000D02*
X535095000Y-197795300D01*
X535095000Y-197795300D02*
X533000000Y-195700300D01*
X563250000Y-231750000D02*
X556750000Y-231750000D01*
X555400000Y-233100000D02*
X556750000Y-231750000D01*
X553130000Y-233100000D02*
X555400000Y-233100000D01*
X536861998Y-206248000D02*
X538168315Y-206248000D01*
X535095000Y-201550000D02*
X535095000Y-204481002D01*
X535095000Y-204481002D02*
X536861998Y-206248000D01*
X538168315Y-206248000D02*
X538734000Y-206248000D01*
G04 #@! TO.N,/B_PHONES*
X463185000Y-202275000D02*
X465310100Y-200149900D01*
X465310100Y-200149900D02*
X524700400Y-200149900D01*
X524700400Y-200149900D02*
X529000000Y-195850300D01*
X463185000Y-202275000D02*
X456685000Y-202275000D01*
X529000000Y-195000000D02*
X529000000Y-195850300D01*
X533825000Y-201550000D02*
X533825000Y-198545000D01*
X531130300Y-195850300D02*
X529000000Y-195850300D01*
X533825000Y-198545000D02*
X531130300Y-195850300D01*
X456656000Y-202275000D02*
X456685000Y-202275000D01*
X452950000Y-200655000D02*
X455036000Y-200655000D01*
X455036000Y-200655000D02*
X456656000Y-202275000D01*
G04 #@! TO.N,/B_DEFEAT*
X543250000Y-231750000D02*
X536750000Y-231750000D01*
X535185000Y-233315000D02*
X536750000Y-231750000D01*
X533175000Y-233315000D02*
X535185000Y-233315000D01*
X532555000Y-211665000D02*
X529735999Y-214484001D01*
X527812000Y-216350000D02*
X529278000Y-214884000D01*
X532555000Y-210450000D02*
X532555000Y-211665000D01*
X529278000Y-214884000D02*
X529336000Y-214884000D01*
X529735999Y-214484001D02*
X529336000Y-214884000D01*
X527812000Y-217150000D02*
X527812000Y-216350000D01*
G04 #@! TO.N,/B_SETTINGS*
X503250000Y-231750000D02*
X496750000Y-231750000D01*
X532000000Y-217150000D02*
X532000000Y-216299700D01*
X532000000Y-216299700D02*
X533825000Y-214474700D01*
X533825000Y-214474700D02*
X533825000Y-210450000D01*
X495455000Y-233045000D02*
X496750000Y-231750000D01*
X492760000Y-233045000D02*
X495455000Y-233045000D01*
X530117992Y-217150000D02*
X529844000Y-217423992D01*
X532000000Y-217150000D02*
X530117992Y-217150000D01*
G04 #@! TO.N,/B_PLUS*
X456750000Y-217750000D02*
X463250000Y-217750000D01*
X536000000Y-217150000D02*
X536000000Y-216299700D01*
X535095000Y-210450000D02*
X535095000Y-215394700D01*
X535095000Y-215394700D02*
X536000000Y-216299700D01*
X455450000Y-219050000D02*
X456750000Y-217750000D01*
X453000000Y-219050000D02*
X455450000Y-219050000D01*
X535095000Y-209340000D02*
X535095000Y-210450000D01*
X511429000Y-208915000D02*
X534670000Y-208915000D01*
X463250000Y-217750000D02*
X464500000Y-219000000D01*
X534670000Y-208915000D02*
X535095000Y-209340000D01*
X501344000Y-219000000D02*
X511429000Y-208915000D01*
X464500000Y-219000000D02*
X501344000Y-219000000D01*
G04 #@! TO.N,/B_MINUS*
X536365000Y-210450000D02*
X536365000Y-212664700D01*
X536365000Y-212664700D02*
X540000000Y-216299700D01*
X540000000Y-217150000D02*
X540000000Y-216299700D01*
X463250000Y-237750000D02*
X456750000Y-237750000D01*
X455465000Y-239035000D02*
X456750000Y-237750000D01*
X453000000Y-239035000D02*
X455465000Y-239035000D01*
X510539998Y-208407000D02*
X502811997Y-216135001D01*
X536365000Y-210450000D02*
X536365000Y-209437500D01*
X502811997Y-216135001D02*
X502411998Y-216535000D01*
X535334500Y-208407000D02*
X510539998Y-208407000D01*
X536365000Y-209437500D02*
X535334500Y-208407000D01*
G04 #@! TO.N,/RES*
X491970000Y-194920000D02*
X490700000Y-193650000D01*
X491970000Y-196501500D02*
X491970000Y-194920000D01*
X559240000Y-190365300D02*
X558470300Y-191135000D01*
X493825700Y-197304500D02*
X492773000Y-197304500D01*
X558470300Y-191135000D02*
X552656000Y-191135000D01*
X501312200Y-189818000D02*
X493825700Y-197304500D01*
X559240000Y-189015000D02*
X559240000Y-190365300D01*
X552656000Y-191135000D02*
X551339000Y-189818000D01*
X492773000Y-197304500D02*
X491970000Y-196501500D01*
X551339000Y-189818000D02*
X501312200Y-189818000D01*
G04 #@! TO.N,/CS0*
X493240000Y-196190000D02*
X500709600Y-188720400D01*
X500709600Y-188720400D02*
X556346700Y-188720400D01*
X556346700Y-188720400D02*
X556568000Y-188499100D01*
X556568000Y-188499100D02*
X556568000Y-188296700D01*
X556568000Y-188296700D02*
X557955900Y-186908800D01*
X557955900Y-186908800D02*
X570575900Y-186908800D01*
X570575900Y-186908800D02*
X570834700Y-186650000D01*
X572185000Y-186650000D02*
X570834700Y-186650000D01*
G04 #@! TO.N,/DC*
X490700000Y-196190000D02*
X489585800Y-195075800D01*
X489585800Y-195075800D02*
X489585800Y-193200600D01*
X489585800Y-193200600D02*
X490356400Y-192430000D01*
X490356400Y-192430000D02*
X495786600Y-192430000D01*
X495786600Y-192430000D02*
X501566600Y-186650000D01*
X501566600Y-186650000D02*
X555185000Y-186650000D01*
G04 #@! TO.N,/SCLK*
X572185000Y-181570000D02*
X570834700Y-181570000D01*
X570834700Y-181570000D02*
X569983500Y-182421200D01*
X569983500Y-182421200D02*
X561264300Y-182421200D01*
G04 #@! TO.N,/MOSI*
X572185000Y-185380000D02*
X558379000Y-185380000D01*
X558379000Y-185380000D02*
X558165000Y-185166000D01*
D42*
G04 #@! TO.N,/LOUT*
X425520000Y-195015000D02*
X425450000Y-194945000D01*
X427280000Y-169215000D02*
X429895000Y-171830000D01*
X429895000Y-171830000D02*
X429895000Y-172154315D01*
X429895000Y-172154315D02*
X429895000Y-172720000D01*
X426680000Y-169215000D02*
X427280000Y-169215000D01*
X425050001Y-195344999D02*
X425450000Y-194945000D01*
X425050001Y-197884999D02*
X425050001Y-195344999D01*
X424815000Y-198120000D02*
X425050001Y-197884999D01*
X405827002Y-198120000D02*
X424815000Y-198120000D01*
X404470000Y-195775000D02*
X404470000Y-196762998D01*
X404470000Y-196762998D02*
X405827002Y-198120000D01*
X425520000Y-206595000D02*
X425050001Y-206125001D01*
X425050001Y-206125001D02*
X425050001Y-197884999D01*
X425520000Y-207495000D02*
X425520000Y-206595000D01*
G04 #@! TO.N,/ROUT*
X434680000Y-169215000D02*
X433079700Y-169215000D01*
X432336900Y-170063200D02*
X433079700Y-169320400D01*
X433079700Y-169320400D02*
X433079700Y-169215000D01*
X430600000Y-207495000D02*
X430600000Y-194380000D01*
X430600000Y-194380000D02*
X430530000Y-194310000D01*
X404095001Y-198990001D02*
X404495000Y-199390000D01*
X403200000Y-198095000D02*
X404095001Y-198990001D01*
X403200000Y-195775000D02*
X403200000Y-198095000D01*
D40*
G04 #@! TO.N,/SDA*
X540175000Y-210450000D02*
X540175000Y-211512800D01*
X540175000Y-211512800D02*
X545812200Y-217150000D01*
X545812200Y-217150000D02*
X548000000Y-217150000D01*
X572185000Y-177760000D02*
X570834700Y-177760000D01*
X570337700Y-177575000D02*
X570649700Y-177575000D01*
X570649700Y-177575000D02*
X570834700Y-177760000D01*
X543160001Y-204615999D02*
X543560000Y-204216000D01*
X540131000Y-207645000D02*
X543160001Y-204615999D01*
X540116700Y-209379200D02*
X540175000Y-209437500D01*
X398120000Y-193954000D02*
X399923000Y-192151000D01*
X540175000Y-209437500D02*
X540175000Y-210450000D01*
X399923000Y-192151000D02*
X437769000Y-192151000D01*
X398120000Y-195775000D02*
X398120000Y-193954000D01*
X437769000Y-192151000D02*
X453277300Y-207659300D01*
X453277300Y-207659300D02*
X540116700Y-207659300D01*
X540116700Y-207659300D02*
X540116700Y-209379200D01*
G04 #@! TO.N,/SCL*
X572185000Y-180300000D02*
X570834700Y-180300000D01*
X566210700Y-179881300D02*
X570416000Y-179881300D01*
X570416000Y-179881300D02*
X570834700Y-180300000D01*
X562920000Y-154000000D02*
X563870300Y-154000000D01*
X572185000Y-180300000D02*
X573535300Y-180300000D01*
X573535300Y-180300000D02*
X574711800Y-179123500D01*
X574711800Y-179123500D02*
X574711800Y-162763400D01*
X574711800Y-162763400D02*
X566898700Y-154950300D01*
X566898700Y-154950300D02*
X564820600Y-154950300D01*
X564820600Y-154950300D02*
X563870300Y-154000000D01*
X539045600Y-210045604D02*
X537899999Y-208900003D01*
X537899999Y-208900003D02*
X537500000Y-208500004D01*
X539045600Y-212045600D02*
X539045600Y-210045604D01*
X544000000Y-217150000D02*
X544000000Y-217000000D01*
X544000000Y-217000000D02*
X539045600Y-212045600D01*
X535032001Y-205975001D02*
X535432000Y-206375000D01*
X396850000Y-193827000D02*
X399034000Y-191643000D01*
X438982500Y-191643000D02*
X452419500Y-205080000D01*
X396850000Y-195775000D02*
X396850000Y-193827000D01*
X399034000Y-191643000D02*
X438982500Y-191643000D01*
X452419500Y-205080000D02*
X534137000Y-205080000D01*
X534137000Y-205080000D02*
X535032001Y-205975001D01*
G04 #@! TO.N,/ADC6*
X420380200Y-213630000D02*
X423817200Y-213630000D01*
X423817200Y-213630000D02*
X424247200Y-214060000D01*
X425360000Y-214060000D02*
X424247200Y-214060000D01*
X419805000Y-213630000D02*
X420380200Y-213630000D01*
X425360000Y-214060000D02*
X426654999Y-214060000D01*
X428479000Y-212235999D02*
X428878999Y-211836000D01*
X426654999Y-214060000D02*
X428479000Y-212235999D01*
X466940685Y-178177400D02*
X466375000Y-178177400D01*
X555185000Y-177760000D02*
X467358085Y-177760000D01*
X467358085Y-177760000D02*
X466940685Y-178177400D01*
G04 #@! TO.N,Net-(DA4-Pad2)*
X425360000Y-215330000D02*
X419805000Y-215330000D01*
X420805000Y-209195000D02*
X425520000Y-209195000D01*
X418000000Y-212000000D02*
X420805000Y-209195000D01*
X419805000Y-215330000D02*
X418330000Y-215330000D01*
X418000000Y-215000000D02*
X418000000Y-212000000D01*
X418330000Y-215330000D02*
X418000000Y-215000000D01*
G04 #@! TO.N,Net-(DA4-Pad3)*
X425360000Y-216600000D02*
X426472800Y-216600000D01*
X430760000Y-217870000D02*
X429647200Y-217870000D01*
X429647200Y-217870000D02*
X428377200Y-216600000D01*
X428377200Y-216600000D02*
X426472800Y-216600000D01*
X430763700Y-217870000D02*
X430760000Y-217870000D01*
X430763700Y-217870000D02*
X431872800Y-217870000D01*
X436000000Y-221000000D02*
X435002800Y-221000000D01*
X435002800Y-221000000D02*
X431872800Y-217870000D01*
X436000000Y-225395000D02*
X436030000Y-225425000D01*
X436000000Y-221000000D02*
X436000000Y-225395000D01*
D41*
G04 #@! TO.N,-12V*
X427547000Y-217870000D02*
X427609000Y-217932000D01*
X425360000Y-217870000D02*
X427547000Y-217870000D01*
D40*
G04 #@! TO.N,/ADC7*
X430760000Y-215330000D02*
X431872800Y-215330000D01*
X436950000Y-214900000D02*
X432302800Y-214900000D01*
X432302800Y-214900000D02*
X431872800Y-215330000D01*
X459415000Y-212805700D02*
X457320700Y-214900000D01*
X457320700Y-214900000D02*
X436950000Y-214900000D01*
X486493100Y-185727600D02*
X493190700Y-179030000D01*
X493190700Y-179030000D02*
X555185000Y-179030000D01*
G04 #@! TO.N,Net-(DA4-Pad6)*
X430760000Y-216600000D02*
X431872800Y-216600000D01*
X436950000Y-216600000D02*
X435799700Y-216600000D01*
X435799700Y-216600000D02*
X431872800Y-216600000D01*
X430600000Y-212368002D02*
X430600000Y-209995000D01*
X429529500Y-213438502D02*
X430600000Y-212368002D01*
X429529500Y-215832000D02*
X429529500Y-213438502D01*
X430600000Y-209995000D02*
X430600000Y-209195000D01*
X430297500Y-216600000D02*
X429529500Y-215832000D01*
X430760000Y-216600000D02*
X430297500Y-216600000D01*
G04 #@! TO.N,/BINT*
X545465000Y-211455000D02*
X545465000Y-195370000D01*
X545465000Y-195370000D02*
X544195000Y-194100000D01*
X555145000Y-184150000D02*
X555185000Y-184110000D01*
X541020000Y-184150000D02*
X555145000Y-184150000D01*
X537635000Y-210450000D02*
X537635000Y-212007000D01*
X537635000Y-212007000D02*
X538080001Y-212452001D01*
X538080001Y-212452001D02*
X538480000Y-212852000D01*
G04 #@! TO.N,/PH_SW*
X417765000Y-186465004D02*
X417765000Y-185555000D01*
X421799996Y-190500000D02*
X417765000Y-186465004D01*
X487680000Y-190500000D02*
X421799996Y-190500000D01*
X488950000Y-189230000D02*
X487680000Y-190500000D01*
X497642300Y-189230000D02*
X488950000Y-189230000D01*
X417765000Y-185555000D02*
X417765000Y-184455000D01*
X555185000Y-185380000D02*
X501492300Y-185380000D01*
X501492300Y-185380000D02*
X497642300Y-189230000D01*
G04 #@! TO.N,/IO0*
X581465000Y-187945000D02*
X580614700Y-187945000D01*
X572185000Y-187920000D02*
X580589700Y-187920000D01*
X580589700Y-187920000D02*
X580614700Y-187945000D01*
X527375000Y-166100000D02*
X527375000Y-167838002D01*
X536047999Y-176511001D02*
X536447998Y-176911000D01*
X527375000Y-167838002D02*
X536047999Y-176511001D01*
X570834700Y-187920000D02*
X572185000Y-187920000D01*
X570834700Y-190403300D02*
X570834700Y-187920000D01*
X569468000Y-191770000D02*
X570834700Y-190403300D01*
X548919500Y-190568400D02*
X550121100Y-191770000D01*
X550121100Y-191770000D02*
X569468000Y-191770000D01*
G04 #@! TO.N,/RXD*
X551208300Y-163830000D02*
X542095000Y-163830000D01*
X542095000Y-163830000D02*
X532265000Y-154000000D01*
X552249500Y-162788800D02*
X551208300Y-163830000D01*
X573959200Y-162788800D02*
X552249500Y-162788800D01*
X574206600Y-175818700D02*
X574206600Y-163036200D01*
X574206600Y-163036200D02*
X573959200Y-162788800D01*
X572185000Y-176490000D02*
X573535300Y-176490000D01*
X573535300Y-176490000D02*
X574206600Y-175818700D01*
G04 #@! TO.N,/TXD*
X572185000Y-175220000D02*
X570834700Y-175220000D01*
X570834700Y-175220000D02*
X557056800Y-175220000D01*
X557056800Y-175220000D02*
X556809700Y-174972900D01*
D42*
G04 #@! TO.N,Net-(K1-Pad8)*
X426680000Y-171755000D02*
X425079700Y-171755000D01*
X419885000Y-155000000D02*
X419885000Y-166560300D01*
X419885000Y-166560300D02*
X425079700Y-171755000D01*
G04 #@! TO.N,Net-(K1-Pad3)*
X433079700Y-171755000D02*
X434680000Y-171755000D01*
X432359000Y-171755000D02*
X433079700Y-171755000D01*
X428498000Y-167894000D02*
X432359000Y-171755000D01*
X425591400Y-167894000D02*
X428498000Y-167894000D01*
X424965000Y-155000000D02*
X424965000Y-167267600D01*
X424965000Y-167267600D02*
X425591400Y-167894000D01*
G04 #@! TO.N,Net-(K1-Pad6)*
X426680000Y-166675000D02*
X428280300Y-166675000D01*
X433460000Y-155000000D02*
X433460000Y-161495300D01*
X433460000Y-161495300D02*
X428280300Y-166675000D01*
G04 #@! TO.N,Net-(K1-Pad5)*
X434680000Y-166675000D02*
X436280300Y-166675000D01*
X438540000Y-155000000D02*
X438540000Y-164415300D01*
X438540000Y-164415300D02*
X436280300Y-166675000D01*
D40*
G04 #@! TO.N,Net-(R25-Pad2)*
X522192000Y-164973000D02*
X522000000Y-165165000D01*
X535813000Y-163830000D02*
X534670000Y-164973000D01*
X534670000Y-164973000D02*
X522192000Y-164973000D01*
G04 #@! TO.N,Net-(R25-Pad1)*
X526288000Y-163830000D02*
X526288000Y-155847300D01*
X527185000Y-154950300D02*
X527185000Y-154000000D01*
X526288000Y-155847300D02*
X527185000Y-154950300D01*
X522238000Y-163703000D02*
X522000000Y-163465000D01*
X526415000Y-163703000D02*
X522238000Y-163703000D01*
G04 #@! TO.N,Net-(R26-Pad2)*
X529484700Y-160000000D02*
X530335000Y-160000000D01*
X528320000Y-161164700D02*
X529484700Y-160000000D01*
X528320000Y-161544000D02*
X528320000Y-161164700D01*
X528325000Y-163800000D02*
X528325000Y-161549000D01*
X528325000Y-161549000D02*
X528320000Y-161544000D01*
G04 #@! TO.N,Net-(R26-Pad1)*
X532035000Y-160000000D02*
X532460200Y-160000000D01*
X532003000Y-156278000D02*
X529725000Y-154000000D01*
X532460200Y-160000000D02*
X532003000Y-159542800D01*
X532003000Y-159542800D02*
X532003000Y-156278000D01*
X533126000Y-160000000D02*
X532460200Y-160000000D01*
X534050000Y-163850000D02*
X534050000Y-160924000D01*
X534050000Y-160924000D02*
X533126000Y-160000000D01*
G04 #@! TO.N,Net-(R6-Pad1)*
X419570000Y-179135000D02*
X419570000Y-179935300D01*
X419570000Y-179935300D02*
X419465000Y-180040300D01*
X419465000Y-180040300D02*
X419465000Y-183304700D01*
X419465000Y-184455000D02*
X419465000Y-183304700D01*
G04 #@! TO.N,Net-(K1-Pad10)*
X420520000Y-176835000D02*
X426680000Y-176835000D01*
X426870000Y-177025000D02*
X426680000Y-176835000D01*
X426870000Y-183820000D02*
X426870000Y-177025000D01*
G04 #@! TO.N,/ONEWIRE*
X578170000Y-164170000D02*
X568000000Y-154000000D01*
X573535300Y-184110000D02*
X578170000Y-179475300D01*
X578170000Y-179475300D02*
X578170000Y-164170000D01*
X572185000Y-184110000D02*
X573535300Y-184110000D01*
G04 #@! TD*
M02*
