G04 #@! TF.GenerationSoftware,KiCad,Pcbnew,5.0.0+dfsg1-2*
G04 #@! TF.CreationDate,2018-09-13T03:31:39+05:00*
G04 #@! TF.ProjectId,mainboard,6D61696E626F6172642E6B696361645F,rev?*
G04 #@! TF.SameCoordinates,Original*
G04 #@! TF.FileFunction,Paste,Bot*
G04 #@! TF.FilePolarity,Positive*
%FSLAX46Y46*%
G04 Gerber Fmt 4.6, Leading zero omitted, Abs format (unit mm)*
G04 Created by KiCad (PCBNEW 5.0.0+dfsg1-2) date Thu Sep 13 03:31:39 2018*
%MOMM*%
%LPD*%
G01*
G04 APERTURE LIST*
%ADD10R,1.200000X1.200000*%
%ADD11C,1.200000*%
%ADD12R,1.500000X1.500000*%
%ADD13C,1.500000*%
%ADD14R,1.050000X1.050000*%
%ADD15C,1.050000*%
%ADD16C,1.100000*%
%ADD17R,1.100000X1.100000*%
G04 APERTURE END LIST*
D10*
G04 #@! TO.C,X2*
X562920000Y-154000000D03*
D11*
X565460000Y-154000000D03*
X568000000Y-154000000D03*
X570540000Y-154000000D03*
X573080000Y-154000000D03*
G04 #@! TD*
D12*
G04 #@! TO.C,D1*
X493240000Y-191110000D03*
D13*
X490700000Y-191110000D03*
X493240000Y-193650000D03*
X490700000Y-193650000D03*
X493240000Y-196190000D03*
X490700000Y-196190000D03*
X493240000Y-198730000D03*
X490700000Y-198730000D03*
X493240000Y-201270000D03*
X490700000Y-201270000D03*
X493240000Y-203810000D03*
X490700000Y-203810000D03*
X493240000Y-206350000D03*
X490700000Y-206350000D03*
X493240000Y-208890000D03*
X490700000Y-208890000D03*
G04 #@! TD*
D14*
G04 #@! TO.C,C5*
X405105000Y-202140000D03*
D15*
X405105000Y-204140000D03*
G04 #@! TD*
G04 #@! TO.C,C6*
X486000000Y-159500000D03*
D14*
X486000000Y-161000000D03*
G04 #@! TD*
D16*
G04 #@! TO.C,C7*
X469645000Y-166390000D03*
D17*
X469645000Y-168890000D03*
G04 #@! TD*
G04 #@! TO.C,C8*
X493000000Y-160000000D03*
D16*
X495500000Y-160000000D03*
G04 #@! TD*
D14*
G04 #@! TO.C,C9*
X479170000Y-168390000D03*
D15*
X479170000Y-166890000D03*
G04 #@! TD*
D17*
G04 #@! TO.C,C15*
X546750000Y-162545000D03*
D16*
X549250000Y-162545000D03*
G04 #@! TD*
D13*
G04 #@! TO.C,SB1*
X583250000Y-231750000D03*
X576750000Y-231750000D03*
X583250000Y-236250000D03*
X576750000Y-236250000D03*
G04 #@! TD*
G04 #@! TO.C,SB2*
X516750000Y-236250000D03*
X523250000Y-236250000D03*
X516750000Y-231750000D03*
X523250000Y-231750000D03*
G04 #@! TD*
G04 #@! TO.C,SB3*
X563250000Y-231750000D03*
X556750000Y-231750000D03*
X563250000Y-236250000D03*
X556750000Y-236250000D03*
G04 #@! TD*
G04 #@! TO.C,SB4*
X463185000Y-197775000D03*
X456685000Y-197775000D03*
X463185000Y-202275000D03*
X456685000Y-202275000D03*
G04 #@! TD*
G04 #@! TO.C,SB5*
X536750000Y-236250000D03*
X543250000Y-236250000D03*
X536750000Y-231750000D03*
X543250000Y-231750000D03*
G04 #@! TD*
G04 #@! TO.C,SB6*
X496750000Y-236250000D03*
X503250000Y-236250000D03*
X496750000Y-231750000D03*
X503250000Y-231750000D03*
G04 #@! TD*
G04 #@! TO.C,SB7*
X463250000Y-217750000D03*
X456750000Y-217750000D03*
X463250000Y-222250000D03*
X456750000Y-222250000D03*
G04 #@! TD*
G04 #@! TO.C,SB8*
X463250000Y-237750000D03*
X456750000Y-237750000D03*
X463250000Y-242250000D03*
X456750000Y-242250000D03*
G04 #@! TD*
D10*
G04 #@! TO.C,X1*
X464565000Y-154305000D03*
D11*
X467105000Y-154305000D03*
X469645000Y-154305000D03*
X472185000Y-154305000D03*
X474725000Y-154305000D03*
X477265000Y-154305000D03*
G04 #@! TD*
D10*
G04 #@! TO.C,X3*
X407645000Y-154880000D03*
D11*
X410185000Y-154880000D03*
X412725000Y-154880000D03*
G04 #@! TD*
D10*
G04 #@! TO.C,X4*
X394310000Y-154880000D03*
D11*
X396850000Y-154880000D03*
X399390000Y-154880000D03*
G04 #@! TD*
D10*
G04 #@! TO.C,X5*
X419885000Y-155000000D03*
D11*
X422425000Y-155000000D03*
X424965000Y-155000000D03*
G04 #@! TD*
G04 #@! TO.C,X6*
X438540000Y-155000000D03*
X436000000Y-155000000D03*
D10*
X433460000Y-155000000D03*
G04 #@! TD*
G04 #@! TO.C,X7*
X527185000Y-154000000D03*
D11*
X529725000Y-154000000D03*
X532265000Y-154000000D03*
X534805000Y-154000000D03*
X537345000Y-154000000D03*
G04 #@! TD*
M02*
